<svg xmlns="http://www.w3.org/2000/svg" xmlns:xlink="http://www.w3.org/1999/xlink" style="isolation:isolate" viewBox="598 244 764.476 461" width="764.476pt" height="461pt"><path d=" M 923.519 250.894 L 923.766 250.878 C 924.001 254.385 924.041 257.896 923.79 261.401 C 923.014 260.88 922.247 260.349 921.488 259.827 C 917.283 261.933 913.099 264.089 908.755 265.897 C 907.313 262.851 905.804 259.828 904.221 256.851 C 910.645 254.9 917.635 254.328 923.519 250.894 Z  M 1029.801 244.013 L 1030.005 244 C 1036.311 246.568 1043.303 246.269 1049.935 247.417 C 1048.854 250.6 1047.806 253.79 1046.663 256.943 C 1042.126 255.761 1037.737 254.1 1033.322 252.553 C 1032.584 253.155 1031.864 253.756 1031.145 254.365 C 1030.615 250.92 1030.145 247.479 1029.801 244.013 Z  M 926.446 251.575 C 931.086 253.824 935.757 256.012 940.441 258.157 C 944.739 260.787 948.828 263.737 953.033 266.51 C 950.853 268.664 948.654 270.793 946.582 273.051 C 943.814 270.475 940.831 268.135 938.023 265.597 C 934.852 262.058 929.767 262.037 925.665 260.196 C 925.86 258.333 926.038 256.462 926.241 254.598 L 925.037 254.966 C 926.702 254.603 926.247 252.841 926.446 251.575 Z  M 1014.6 253.193 C 1018.846 250.539 1023.1 247.876 1027.251 245.065 C 1027.955 247.902 1028.575 250.762 1029.186 253.614 C 1025.459 255.731 1020.75 256.497 1018.029 260.05 C 1015.34 262.911 1012.878 265.978 1010.134 268.783 C 1007.624 267.035 1005.335 265 1002.872 263.189 C 1006.868 259.962 1010.55 256.364 1014.6 253.193 Z  M 897.102 260.314 C 898.984 260.141 900.87 260.028 902.764 259.897 C 903.75 262.349 904.736 264.809 905.739 267.252 C 904.393 268.473 902.899 269.5 901.46 270.591 C 900.234 267.071 898.643 263.694 897.102 260.314 Z  M 1051.876 250.26 C 1053.796 250.135 1055.714 249.994 1057.633 249.861 C 1056.473 253.416 1055.426 256.998 1054.535 260.629 C 1052.974 259.843 1051.333 259.13 1050.083 257.864 C 1050.367 255.27 1051.299 252.796 1051.876 250.26 Z  M 890.188 264.045 C 892.199 263.753 894.233 263.562 896.275 263.481 C 896.618 265.753 897.356 267.931 898.102 270.092 C 897.165 271.568 896.228 273.036 895.38 274.558 C 893.61 271.065 891.808 267.599 890.188 264.045 Z  M 1058.962 252.863 C 1060.976 252.749 1062.997 252.747 1065.024 252.837 C 1063.913 256.235 1062.196 259.485 1061.798 263.076 C 1061.464 263.055 1060.805 263.029 1060.48 263.007 C 1059.509 261.578 1057.504 260.386 1058.092 258.394 C 1058.399 256.549 1058.698 254.714 1058.962 252.863 Z  M 883.194 268.916 C 885.126 268.186 887.144 267.739 889.175 267.369 C 890.602 269.247 891.948 271.206 892.923 273.361 C 891.866 274.555 890.69 275.62 889.55 276.718 C 887.363 274.164 885.404 271.434 883.194 268.916 Z  M 1063.198 262.311 C 1064.159 260.168 1065.146 258.023 1066.231 255.932 C 1068.318 256.035 1070.414 256.258 1072.481 256.567 C 1070.622 259.34 1069.118 262.329 1067.277 265.117 C 1065.889 264.218 1064.539 263.265 1063.198 262.311 Z  M 876.585 272.875 C 878.588 272.592 880.595 272.368 882.61 272.135 C 883.769 273.843 885.042 275.457 886.193 277.165 C 886.223 278.553 884.751 279.391 884.115 280.507 C 881.669 277.893 878.895 275.616 876.585 272.875 Z  M 1001.168 264.928 C 1001.177 265.192 1001.185 265.712 1001.193 265.976 C 1003.755 267.729 1006.261 269.562 1008.729 271.458 C 1007.649 272.159 1006.53 272.794 1005.421 273.446 C 1003.211 272.105 1001.015 270.721 998.999 269.094 C 999.596 267.648 1000.448 266.323 1001.168 264.928 Z  M 1070.537 265.281 C 1071.468 263.447 1072.548 261.689 1073.424 259.815 C 1075.37 259.706 1077.34 259.562 1079.286 259.854 C 1077.766 262.988 1075.006 265.41 1072.998 268.252 C 1072.268 267.242 1070.705 266.55 1070.537 265.281 Z  M 948.33 275.283 C 950.64 273.146 952.912 270.961 955.075 268.672 C 956.009 269.66 956.976 270.638 957.927 271.626 C 955.919 273.419 953.93 275.228 951.867 276.956 C 950.68 276.402 949.5 275.838 948.33 275.283 Z  M 876.496 276.369 C 876.736 276.524 877.207 276.817 877.447 276.972 C 878.407 278.36 879.441 279.7 880.498 281.022 C 879.766 282.494 878.865 283.857 878.061 285.265 C 875.894 282.753 873.72 280.258 871.635 277.69 C 873.264 277.294 874.903 276.924 876.496 276.369 Z  M 1076.692 268.397 C 1077.676 266.61 1078.705 264.838 1079.778 263.105 C 1081.48 263.584 1083.246 263.725 1085.008 263.935 C 1083.447 266.817 1081.307 269.335 1079.71 272.201 C 1078.69 270.937 1077.687 269.671 1076.692 268.397 Z  M 951.351 278.465 C 954.459 276.293 957.978 274.658 960.74 272.006 C 960.7 274.405 960.846 276.801 961.018 279.195 C 963.256 278.845 965.492 278.479 967.724 278.053 C 968.174 279.337 968.616 280.622 969.057 281.907 C 970.768 281.455 972.491 281.062 974.233 280.71 C 974.387 282.688 974.591 284.653 974.804 286.626 C 977.838 286.2 980.874 285.798 983.932 285.473 C 983.801 283.716 983.695 281.957 983.582 280.199 C 985.379 280.159 987.192 280.238 988.957 280.635 C 989.302 279.24 989.656 277.853 989.992 276.458 C 992.214 276.8 994.474 276.927 996.726 276.934 C 996.587 274.658 996.406 272.384 996.182 270.113 C 999.435 271.872 1002.839 273.34 1006.174 274.932 C 1005.935 275.98 1005.705 277.035 1005.5 278.089 C 1003.709 278.094 1001.923 278.039 1000.144 277.95 C 1001.591 279.886 1003.031 281.848 1004.929 283.371 C 1013.39 290.755 1022.342 297.553 1030.969 304.738 C 1032.176 309.018 1033.817 313.167 1034.84 317.494 C 1032.172 315.15 1029.671 312.617 1026.948 310.346 C 1024.05 308.794 1020.711 308.319 1017.622 307.24 C 1014.108 305.787 1010.292 306.921 1006.636 306.834 C 1000.912 307.332 995.161 307.295 989.444 307.776 C 989.601 308.227 989.924 309.127 990.089 309.577 C 999.679 310.295 1009.319 310.6 1018.879 311.636 C 1023.929 313.509 1028.778 317.263 1030.502 322.559 C 1030.721 323.44 1031.499 324.644 1030.628 325.416 C 1027.44 328.616 1024.463 332.024 1021.138 335.071 C 1016.994 332.713 1012.727 330.567 1008.455 328.472 C 994.808 325.944 980.54 325.163 966.996 328.709 C 962.306 330.044 957.147 330.583 953.184 333.663 C 950.249 335.882 947.053 337.752 944.184 340.07 C 940.274 337.373 936.875 334.019 932.958 331.339 C 933.42 324.913 937.956 319.357 943.517 316.472 C 952.724 314.298 962.066 312.636 971.366 310.848 C 971.376 310.345 971.404 309.328 971.413 308.816 C 962.831 309.96 954.109 310.004 945.535 311.148 C 942.199 312.583 938.85 314.071 935.73 315.936 C 932.951 318.461 931.007 321.76 928.274 324.342 C 928.754 320.677 929.56 317.069 930.143 313.415 C 930.397 310.618 932.88 308.931 934.605 306.994 C 941.274 299.739 948.324 292.844 954.74 285.367 C 955.899 283.902 956.745 282.226 957.708 280.629 C 955.908 281.01 954.103 281.323 952.284 281.551 C 951.978 280.522 951.665 279.493 951.351 278.465 Z  M 865.666 284.029 C 867.217 283.23 868.73 282.355 870.233 281.457 C 871.584 283.1 872.937 284.761 874.362 286.349 C 873.616 287.736 872.852 289.116 872.115 290.503 C 869.978 288.33 867.609 286.385 865.666 284.029 Z  M 1087.043 267.428 C 1088.649 268.126 1090.247 268.833 1091.869 269.521 C 1089.959 271.896 1088.175 274.382 1086.149 276.671 C 1085.294 275.464 1084.408 274.285 1083.636 273.039 C 1084.355 270.962 1085.811 269.222 1087.043 267.428 Z  M 943.167 282.483 C 945.047 282.131 946.992 282.278 948.906 282.197 C 941.489 289.628 933.71 296.715 926.093 303.946 C 927.407 300.927 928.668 297.878 930.06 294.888 C 933.489 289.89 937.751 285.366 943.167 282.483 Z  M 1008.908 278.303 C 1010.809 278.146 1012.711 277.887 1014.634 277.822 C 1022.166 280.865 1028.983 286.308 1032.502 293.765 C 1033.086 294.759 1033.662 295.754 1034.264 296.747 C 1025.689 290.769 1017.334 284.487 1008.908 278.303 Z  M 860.187 291.096 C 861.704 289.881 863.238 288.69 864.838 287.58 C 866.168 289.285 867.628 290.896 869.176 292.407 C 868.191 293.52 867.251 294.681 866.12 295.65 C 863.88 294.644 862.263 292.463 860.187 291.096 Z  M 1089.459 278.274 C 1090.697 276.445 1091.951 274.616 1093.206 272.786 C 1094.854 273.745 1096.51 274.679 1098.182 275.611 C 1096.445 277.369 1094.79 279.199 1093.216 281.101 C 1091.929 280.203 1090.635 279.306 1089.459 278.274 Z  M 1004.014 281.213 C 1005.881 281.203 1008.127 279.94 1009.739 281.38 C 1017.939 287.646 1026.464 293.508 1034.601 299.846 C 1036.142 302.697 1036.417 306.168 1037.554 309.233 C 1032.182 304.762 1027.157 299.876 1021.65 295.559 C 1015.834 290.699 1009.719 286.208 1004.014 281.213 Z  M 948.463 285.509 C 949.898 283.685 952.396 284.725 954.337 284.548 C 944.608 294.594 934.764 304.579 925.924 315.436 C 925.569 315.621 924.86 316 924.505 316.185 C 925.203 313.257 925.615 310.271 925.882 307.277 C 933.321 299.93 940.924 292.752 948.463 285.509 Z  M 857.689 295.582 C 858.469 295.113 859.11 294.219 860.029 294.049 C 861.356 294.926 862.48 296.073 863.65 297.149 C 862.986 297.959 862.165 298.456 861.179 298.648 C 859.91 297.749 858.807 296.652 857.689 295.582 Z  M 1095.34 282.166 C 1096.482 280.966 1097.596 279.734 1098.701 278.486 C 1099.519 278.868 1100.353 279.248 1101.188 279.629 C 1100.218 280.98 1099.167 282.268 1098.098 283.539 C 1097.173 283.079 1096.256 282.618 1095.34 282.166 Z  M 856.992 297.461 C 858.001 298.419 859.042 299.358 860.1 300.278 C 858.885 300.613 857.671 300.973 856.455 301.291 C 856.611 300.01 856.793 298.736 856.992 297.461 Z  M 1099.223 284.584 C 1100.178 283.644 1101.113 282.679 1102.084 281.746 C 1102.452 282.942 1102.87 284.134 1103.238 285.339 C 1101.871 285.163 1100.561 284.821 1099.223 284.584 Z  M 610.05 320.186 C 617.435 317.934 625.124 316.813 632.832 316.519 C 673.127 313.322 713.56 321.203 751.502 334.49 C 749.079 334.732 746.648 334.864 744.216 334.979 C 748.749 337.798 753.55 340.165 758.121 342.923 C 755.952 342.884 753.791 342.7 751.618 342.593 C 751.743 342.824 751.987 343.294 752.104 343.526 C 749.726 341.957 746.703 342.698 744.028 342.471 C 748.619 344.885 753.164 347.372 757.762 349.769 C 753.467 349.689 749.182 350.154 744.898 349.851 C 749.183 352.815 754.103 354.765 758.713 357.212 C 758.633 357.422 758.481 357.842 758.409 358.051 C 753.913 356.977 749.228 357.98 744.641 357.74 C 747.007 359.25 750.006 359.192 752.602 360.175 C 756.108 361.364 759.848 361.838 763.232 363.376 C 757.494 363.944 751.735 364.3 745.994 364.808 C 752.111 366.945 758.452 368.453 764.591 370.546 C 759.04 371.485 753.503 372.509 747.963 373.482 C 753.624 374.514 759.352 375.243 765.092 375.776 L 764.652 374.909 C 765.417 375.533 766.337 375.908 767.196 376.39 C 764.624 378.305 761.528 376.842 758.707 377.801 C 755.9 378.571 752.937 378.524 750.155 379.412 C 756.5 380.468 762.999 380.858 769.216 382.442 C 764.413 383.726 759.76 385.494 755.032 387.028 C 762.316 387.443 769.63 387.388 776.912 387.761 C 770.871 389.423 764.688 390.607 758.638 392.27 C 764.491 393.23 770.527 393.206 776.28 394.599 C 770.215 396.16 764.104 397.536 758.031 399.098 C 765.222 400.441 772.731 399.716 780.043 400.419 C 774.092 402.16 768.002 403.604 762.198 405.762 C 769.97 406.205 777.773 405.666 785.529 406.111 C 778.397 407.656 771.325 409.487 764.193 411.031 C 769.1 412.002 774.155 411.299 779.101 412.079 C 774.636 413.195 769.965 412.969 765.441 413.705 C 761.196 414.006 756.882 414.814 752.65 414.005 C 740.769 412.139 729.301 408.369 717.932 404.543 C 694.208 396.151 671.082 386.058 648.851 374.253 C 635.99 367.282 623.334 359.777 611.931 350.554 C 606.976 346.337 602.111 341.672 599.359 335.658 C 597.984 333.521 597.334 330.595 598.957 328.392 C 600.927 323.907 605.718 321.763 610.05 320.186 Z  M 1254.389 286.367 C 1274.466 279.268 1295.387 274.519 1316.573 272.303 C 1327.935 271.533 1339.502 270.128 1350.763 272.546 C 1355.532 273.619 1360.891 275.915 1362.318 281.085 L 1362.476 283.523 C 1361.617 290.819 1356.719 296.697 1352.03 301.998 C 1345.106 309.662 1337.116 316.26 1329.063 322.683 C 1306.386 340.211 1281.802 355.167 1256.447 368.475 C 1244.331 374.59 1232.006 380.488 1218.918 384.235 C 1216.932 384.918 1214.89 384.189 1212.903 383.934 C 1204.625 382.67 1196.22 382.472 1187.959 381.208 C 1195.582 379.998 1203.357 379.682 1210.865 377.746 C 1204.688 376.798 1198.519 375.825 1192.426 374.454 C 1199.894 373.484 1207.384 372.462 1214.693 370.616 C 1208.182 369.63 1201.621 369.074 1195.098 368.166 C 1200.83 366.2 1206.867 365.263 1212.643 363.448 C 1206.517 362.497 1200.296 362.175 1194.182 361.138 C 1201.317 359.627 1208.604 358.891 1215.787 357.607 C 1210.788 356.412 1205.743 355.417 1200.707 354.43 C 1207.068 352.56 1213.372 350.471 1219.822 348.936 C 1213.802 348.286 1207.727 348.508 1201.71 347.917 C 1208.058 345.988 1214.626 344.684 1220.848 342.388 C 1215.229 342.138 1209.618 341.759 1204.001 341.679 C 1209.804 338.566 1215.889 335.997 1221.846 333.164 C 1215.945 333.171 1210.064 333.765 1204.178 334.001 C 1209.496 331.175 1215.061 328.614 1220.853 326.917 L 1220.739 326.865 C 1216.557 325.379 1212.178 327.155 1207.898 327.184 C 1212.175 323.812 1216.75 320.846 1220.971 317.409 C 1216.583 317.872 1212.218 318.419 1207.87 319.101 C 1212.13 315.746 1216.651 312.733 1220.865 309.313 C 1216.258 310.481 1211.501 310.772 1206.883 311.89 C 1210.591 308.58 1214.604 305.608 1218.628 302.686 C 1218.005 302.556 1216.769 302.295 1216.146 302.165 C 1228.756 296.572 1241.322 290.821 1254.389 286.367 Z  M 870.424 322.347 C 871.679 323.025 872.934 323.703 874.182 324.407 C 872.405 325.682 870.599 326.899 868.727 328.018 C 869.26 326.116 869.812 324.221 870.424 322.347 Z  M 1088.434 310.527 C 1089.619 309.725 1090.765 308.849 1091.996 308.105 C 1092.975 309.789 1093.681 311.612 1094.396 313.425 C 1092.345 312.576 1090.409 311.516 1088.434 310.527 Z  M 866.341 330.816 C 870.017 328.838 873.538 326.581 877.098 324.397 C 877.92 327.354 878.827 330.289 879.733 333.216 C 877.771 333.999 875.84 334.866 874.091 336.054 C 871.404 334.454 868.911 332.577 866.341 330.816 Z  M 1085.572 310.977 C 1089.456 312.474 1093.191 314.313 1097.045 315.88 C 1094.97 318.078 1092.547 319.907 1090.416 322.04 C 1088.351 321.236 1086.266 320.501 1084.18 319.766 C 1084.707 316.849 1085.32 313.935 1085.572 310.977 Z  M 1080.809 318.679 C 1084.816 319.844 1088.152 322.63 1092.193 323.793 C 1091.392 324.996 1090.592 326.199 1089.791 327.394 C 1086.833 326.102 1084.033 324.483 1081.046 323.261 C 1080.862 321.738 1080.737 320.211 1080.809 318.679 Z  M 872.218 338.069 C 876.038 336.218 879.364 333.581 882.833 331.173 C 882.956 332.811 883.078 334.44 883.176 336.08 C 880.38 337.549 878.068 339.908 875.15 341.077 C 874.06 340.184 873.138 339.118 872.218 338.069 Z  M 1191.023 315.51 C 1193.434 313.221 1196.712 311.824 1200.041 312.794 C 1197.072 313.83 1194.07 314.749 1191.023 315.51 Z  M 765.063 342.925 C 767.385 342.434 769.72 342.001 772.059 341.654 C 774.92 343.029 777.993 343.862 780.905 345.098 C 780.896 345.226 780.878 345.475 780.869 345.603 C 783.993 346.024 786.825 347.495 789.768 348.55 C 819.871 360.357 850.104 372.336 881.798 379.213 C 892.41 381.614 903.183 383.227 913.993 384.472 C 912.32 388.41 910.419 392.243 908.553 396.09 C 885.91 399.126 863.337 402.574 840.719 405.736 C 831.999 406.863 823.276 408.605 814.443 408.384 C 815.386 408.058 816.392 407.268 817.437 407.729 C 820.172 407.16 822.929 406.666 825.649 406.004 C 814.42 405.136 803.159 405.6 791.93 404.869 C 801.3 403.375 810.857 403.575 820.232 402.167 C 810.407 400.185 800.356 399.07 790.643 396.714 C 798.323 396.387 805.94 395.348 813.609 394.843 C 813.855 394.699 814.339 394.395 814.586 394.251 C 805.345 393.007 796.202 391.015 786.891 390.398 C 795.11 388.902 803.485 388.505 811.762 387.398 C 801.896 385.58 791.852 384.823 781.941 383.239 C 790.884 381.73 799.692 379.454 808.704 378.368 C 807.991 378.013 807.248 377.737 806.485 377.539 C 796.129 376.325 785.695 375.619 775.365 374.266 C 782.083 373.311 788.679 371.647 795.399 370.718 C 794.418 370.312 793.422 369.95 792.359 369.865 C 786.298 369.115 780.262 368.235 774.22 367.381 C 772.913 367.09 771.631 367.446 770.359 367.691 C 770.423 367.362 770.542 366.69 770.606 366.361 C 777.853 365.142 785.041 363.542 792.224 361.985 C 784.347 360.977 776.399 360.468 768.521 359.443 C 774.87 357.002 781.337 354.801 787.544 352.011 C 779.658 351.916 771.8 351.077 763.948 350.46 C 769.499 348.736 775.07 347.053 780.765 345.84 C 775.785 343.869 770.207 344.264 765.063 342.925 Z  M 876.204 342.075 C 879.41 339.829 882.551 337.485 885.672 335.117 C 885.661 336.525 885.634 337.942 885.648 339.357 C 883.097 341.313 880.381 343.092 877.329 344.177 C 876.951 343.477 876.582 342.776 876.204 342.075 Z  M 1078.413 322.51 C 1081.861 324.522 1085.293 326.551 1088.878 328.314 C 1088.477 329.1 1088.085 329.892 1087.7 330.676 C 1084.901 329.595 1081.968 328.677 1079.455 327.014 C 1078.926 325.564 1078.757 324.006 1078.413 322.51 Z  M 948.464 340.842 C 956.449 337.46 964.175 333.352 972.458 330.752 C 979.267 330.396 986.101 330.303 992.916 330.058 C 1001.022 331.7 1008.94 334.249 1016.941 336.375 C 1019.482 341.37 1021.26 346.705 1023.545 351.828 C 1025.101 355.718 1027.001 359.501 1028.274 363.495 C 1027.552 370.254 1027.012 377.061 1025.902 383.768 C 1012.17 379.395 997.733 374.957 983.159 377.077 C 970.134 379.293 957.797 384.229 945.533 388.963 C 944.029 382.331 942.272 375.75 940.726 369.129 C 941.986 363.555 943.774 358.109 945.146 352.562 L 944.217 352.435 C 944.496 352.4 945.055 352.338 945.334 352.303 C 946.14 348.421 947.362 344.641 948.464 340.842 Z  M 1157.846 333.145 C 1167.106 328.231 1176.217 323.01 1185.525 318.185 C 1191.063 318.1 1196.423 319.868 1201.914 320.382 C 1194.437 322.521 1186.72 323.728 1179.114 325.338 C 1179.363 325.501 1179.854 325.827 1180.103 325.982 C 1186.297 327.338 1192.483 328.839 1198.571 330.654 C 1190.861 332.373 1183.192 334.31 1175.51 336.189 C 1183 337.274 1190.698 337.355 1198.236 338.394 C 1189.768 340.776 1181.301 343.183 1172.823 345.54 C 1179.499 346.43 1186.308 346.083 1192.975 347.229 C 1182.096 349.929 1171.088 352.202 1160.334 355.364 C 1169.049 355.609 1177.726 356.583 1186.438 356.923 C 1186.712 357.067 1187.26 357.364 1187.534 357.517 C 1178.235 360.106 1168.76 362.221 1159.671 365.41 C 1167.915 365.107 1176.179 365.229 1184.427 364.985 C 1178.011 367.046 1171.368 368.38 1165.018 370.685 C 1162.493 371.727 1159.509 371.732 1157.317 373.452 C 1165.342 373.043 1173.378 372.813 1181.411 372.54 C 1171.978 375.965 1162.286 378.674 1152.84 382.014 C 1157.997 381.979 1163.161 381.645 1168.327 381.617 C 1172.642 381.611 1176.927 380.608 1181.256 380.942 C 1178.203 382.001 1174.981 382.159 1171.805 382.501 C 1163.692 384.05 1155.434 384.934 1147.424 386.885 C 1119.491 386.988 1091.581 386.134 1063.653 386.049 C 1061.436 382.363 1058.908 378.885 1056.732 375.179 C 1092.529 366.926 1125.826 350.741 1157.846 333.145 Z  M 879.06 346.274 C 881.809 343.546 885.148 341.505 888.155 339.075 C 888.353 340.171 888.553 341.276 888.743 342.372 C 886.601 344.054 884.826 346.148 882.701 347.846 C 881.459 347.372 880.248 346.845 879.06 346.274 Z  M 1076.663 326.837 C 1079.913 328.946 1083.48 330.566 1086.63 332.844 C 1085.351 333.507 1084.127 334.234 1082.915 335.003 C 1080.802 333.195 1078.525 331.612 1076.341 329.902 C 1076.419 329.13 1076.585 327.601 1076.663 326.837 Z  M 890.158 341.837 C 892.459 343.905 894.574 346.148 896.545 348.528 C 895.363 351.214 893.916 353.772 892.637 356.414 C 889.245 354.331 886.156 351.81 882.912 349.521 C 885.213 346.856 887.858 344.51 890.158 341.837 Z  M 1074.921 329.96 C 1077.791 332 1080.4 334.364 1083.128 336.584 C 1080.319 339.171 1077.601 341.846 1074.819 344.457 C 1072.524 342.729 1071.13 339.638 1069.519 337.158 C 1071.272 334.725 1072.916 332.196 1074.921 329.96 Z  M 897.075 351.709 C 898.972 350.46 900.814 349.138 902.656 347.808 C 903.641 348.145 904.626 348.474 905.62 348.802 C 903.985 350.553 902.287 352.25 900.597 353.945 C 900.486 356.707 899.096 359.876 901.471 362.051 C 900.282 362.776 899.091 363.484 897.928 364.233 C 896.391 362.755 894.847 361.294 893.286 359.843 C 894.596 357.157 895.809 354.417 897.075 351.709 Z  M 1060.568 338.923 C 1061.465 338.422 1062.37 337.92 1063.285 337.425 C 1065.248 338.492 1067.317 339.373 1069.227 340.555 C 1071.089 342.958 1072.543 345.662 1074.217 348.197 C 1072.827 349.78 1071.428 351.354 1070.173 353.047 C 1068.946 352.547 1067.727 352.02 1066.516 351.502 C 1066.986 350.2 1067.334 348.856 1067.578 347.484 C 1067.196 347.381 1066.432 347.175 1066.059 347.071 C 1064.499 348.664 1062.624 350.005 1061.515 351.97 C 1057.901 358.464 1054.421 365.052 1050.71 371.484 C 1049.05 367.583 1047.217 363.762 1044.987 360.153 C 1046.75 358.931 1048.587 357.797 1050.192 356.371 C 1052.794 352.825 1052.527 347.64 1056.056 344.716 C 1057.468 343.346 1058.797 341.878 1060.411 340.724 C 1062.096 342.509 1064.037 344.038 1065.577 345.959 C 1065.983 345.498 1066.405 345.044 1066.827 344.582 C 1065.75 342.699 1063.956 341.467 1062.247 340.23 C 1061.682 339.798 1061.116 339.357 1060.568 338.923 Z  M 927.314 364.829 C 931.481 357.933 936.281 351.055 943.213 346.675 C 941.046 352.205 939.326 357.903 937.282 363.485 C 936.482 366.018 935.103 368.555 935.775 371.292 C 937.69 381.914 939.64 392.534 941.497 403.168 C 936.628 405.82 931.493 407.91 926.643 410.586 C 924.847 407.743 923.24 404.785 921.616 401.837 C 920.904 400.851 921.31 399.606 921.341 398.503 C 922.076 392.477 922.589 386.431 923.299 380.407 C 924.47 375.18 925.909 370.003 927.314 364.829 Z  M 1023.063 341.232 C 1027.015 343.919 1031.329 346.266 1034.468 349.952 C 1036.57 352.383 1038.946 354.574 1040.91 357.117 C 1043.035 361.875 1044.761 366.803 1046.919 371.55 C 1047.181 371.644 1047.714 371.84 1047.976 371.934 C 1047.132 373.66 1047.795 375.587 1048.207 377.343 C 1049.568 382.304 1050.595 387.355 1051.898 392.336 C 1050.643 395.872 1049.107 399.289 1047.729 402.772 C 1042.483 400.903 1037.192 399.148 1031.91 397.392 C 1032.365 388.219 1032.898 379.059 1033.234 369.886 C 1033.38 366.747 1034.113 363.314 1032.51 360.424 C 1030.032 355.203 1027.181 350.168 1024.876 344.867 C 1024.234 344.824 1023.599 344.762 1022.98 344.692 C 1024.489 344.022 1024.526 342.877 1023.063 341.232 Z  M 900.646 357.465 C 902.398 355.159 904.12 352.771 906.261 350.798 C 908.47 352.259 910.603 353.843 912.617 355.572 C 914.737 358.284 915.552 361.787 917.656 364.508 C 919.475 365.994 921.66 366.944 923.733 368.012 C 921.934 371.839 920.764 375.906 919.637 379.97 C 914.805 373.963 910.557 367.501 905.838 361.401 C 904.329 359.827 902.407 358.724 900.646 357.465 Z  M 953.894 394.417 C 963.327 390.873 972.765 386.995 982.776 385.392 C 992.558 384.076 1002.283 386.602 1011.794 388.605 C 1014.792 389.468 1017.995 389.798 1020.871 391.028 C 1023.529 394.403 1026.067 397.898 1029.041 401.023 C 1029.494 407.228 1029.802 413.442 1030.043 419.661 C 1030.681 424.387 1027 427.995 1024.293 431.36 C 1020.813 434.911 1018.164 439.969 1012.874 440.994 C 1003.405 443.586 994.208 449.341 984.065 447.593 C 977.961 446.444 971.877 445.201 965.812 443.871 L 966.021 444.855 C 965.055 443.109 962.631 443.735 961.223 442.547 C 956.833 439.028 952.592 435.294 948.744 431.185 C 947.757 430.174 946.912 428.975 946.684 427.557 C 945.731 421.41 945.448 415.185 944.91 408.986 C 944.291 405.751 947.216 403.498 948.536 400.836 C 950.227 398.637 950.844 395.126 953.894 394.417 Z  M 1068.175 391.214 C 1074.996 390.397 1081.951 390.988 1088.816 390.33 C 1098.184 390.38 1107.543 389.109 1116.895 390.098 C 1129.715 390.923 1142.558 391.686 1155.38 392.673 C 1158.906 392.717 1162.44 392.113 1165.959 392.721 C 1163.037 393.559 1160.055 394.136 1157.117 394.863 C 1160.499 395.062 1163.885 395.337 1167.227 395.974 C 1163.674 396.818 1160.014 396.671 1156.403 396.751 C 1159.432 398.602 1163.407 397.705 1166.504 399.552 C 1162.852 399.797 1159.183 400.026 1155.571 400.626 C 1157.861 402.132 1161.273 400.965 1163.064 403.066 C 1160.367 403.045 1157.685 402.971 1155.01 403.281 C 1158.37 404.999 1162.268 404.61 1165.77 405.868 C 1160.938 406.462 1156.089 407.049 1151.236 407.431 C 1143.899 406.746 1136.572 405.796 1129.315 404.501 C 1108.949 400.02 1088.528 395.747 1068.175 391.214 Z  M 885.027 405.11 C 892.518 404.634 899.936 403.147 907.449 403.002 C 890.891 409.131 874.173 414.896 857.563 420.892 C 846.205 425.141 834.564 428.565 822.829 431.601 C 820.345 432.368 817.749 431.913 815.206 432.018 C 813.012 431.998 810.77 432.527 808.646 431.871 C 811.931 430.84 815.244 429.841 818.403 428.442 C 814.978 428.11 811.576 429.046 808.159 428.568 C 811.216 427.432 815.036 427.552 817.506 425.26 C 813.743 425.102 809.994 425.686 806.238 425.375 C 809.65 424.19 813.179 423.373 816.517 421.972 C 812.94 421.393 809.369 422.349 805.805 422.495 C 807.719 420.708 810.664 421.285 812.973 420.317 C 813.469 420.344 814.462 420.408 814.959 420.435 C 815.037 420.191 815.175 419.688 815.244 419.436 C 811.49 419.816 807.686 419.414 803.914 419.769 C 807.645 416.141 812.97 416.982 817.674 416.26 C 831.128 413.828 844.49 410.899 857.932 408.408 C 866.809 406.281 875.949 405.715 885.027 405.11 Z  M 1207.441 391.92 C 1218.118 389.532 1228.608 386.235 1239.278 383.744 C 1244.802 387.523 1250.72 391.072 1254.784 396.54 C 1256.339 398.818 1257.484 402.139 1255.304 404.429 C 1251.662 408.247 1246.119 409.058 1241.186 410.051 C 1227.331 412.091 1213.276 411.824 1199.332 411.302 C 1194.573 411.704 1190.175 409.507 1185.521 409.015 C 1180.884 408.002 1176.149 407.584 1171.541 406.483 C 1177.292 406.009 1183.079 406.606 1188.864 406.24 C 1183.373 405.078 1177.722 405.136 1172.241 403.999 C 1177.366 402.934 1182.644 403.3 1187.841 402.827 C 1183.781 401.239 1179.125 401.25 1174.813 400.387 C 1179.873 399.496 1185.039 399.588 1190.104 398.655 C 1184.903 398.156 1179.673 398.255 1174.501 397.541 C 1179.751 395.777 1185.562 396.74 1190.721 395.016 C 1185.77 394.031 1180.575 395.323 1175.785 393.654 C 1186.266 392.063 1196.852 391.83 1207.441 391.92 Z  M 737.058 417.53 C 747.863 418.971 758.684 420.258 769.493 421.622 C 781.612 420.437 793.67 418.573 805.814 417.497 C 799.644 419.03 793.241 419.053 787.016 420.249 C 790.601 421.748 794.592 420.696 798.348 421.263 C 793 422.71 787.372 422.989 782.017 424.444 C 787.6 424.927 793.237 424.127 798.822 424.772 C 794.846 425.661 790.853 426.567 786.797 427.018 L 786.856 427.926 C 790.584 427.813 794.318 427.528 798.049 427.585 C 793.944 429.523 789.312 430.036 785.141 431.867 C 790.425 432.07 795.664 431.057 800.947 431.244 C 796.513 433.237 791.354 432.991 787.06 435.418 C 792.245 435.159 797.288 433.485 802.502 433.523 C 795.96 435.9 789.262 437.826 782.667 440.027 C 782.767 440.378 782.974 441.073 783.073 441.425 C 775.248 442.272 767.607 444.388 759.74 444.999 C 753.005 445.956 746.217 446.898 739.403 446.512 C 734.477 446.43 729.188 446.278 724.894 443.571 C 723.108 442.595 722.546 440.644 721.936 438.858 C 723.256 429.733 731.048 423.761 737.058 417.53 Z  M 929.118 412.857 C 933.182 411.468 937.253 410.07 941.213 408.398 C 942.065 416.018 943.694 423.529 944.773 431.109 C 945.138 433.184 944.909 435.706 946.645 437.231 C 951.753 442.623 957.158 447.731 962.233 453.143 C 959.424 452.693 956.554 452.76 953.741 452.387 C 950.208 449.589 947.111 446.275 943.587 443.476 C 939.143 440.045 935.432 435.816 931.757 431.611 C 930.424 429.991 928.922 428.4 928.27 426.361 C 927.621 421.866 928.34 417.299 929.118 412.857 Z  M 1033.024 402.471 C 1037.118 403.528 1041.229 404.592 1045.417 405.25 C 1046.936 409.757 1048.293 414.514 1047.931 419.322 C 1042.913 430.205 1033.901 438.413 1026.379 447.514 C 1023.732 448.641 1020.635 448.492 1017.925 449.588 C 1022.104 443.262 1027.186 437.577 1031.525 431.36 C 1032.364 430.487 1032.206 429.227 1032.296 428.121 C 1032.357 419.571 1032.929 411.023 1033.024 402.471 Z  M 885.016 415.746 C 888.498 413.542 893.056 412.01 896.845 414.417 C 896.011 419.853 896.674 425.354 896.873 430.799 C 895.337 431.043 893.785 431.178 892.222 431.143 C 890.024 425.912 887.388 420.889 885.016 415.746 Z  M 1077.957 402.811 C 1080.929 399.574 1086.021 400.899 1089.564 402.529 C 1087.841 407.936 1086.023 413.308 1084.326 418.714 C 1082.86 418.86 1081.392 418.981 1079.943 419.117 C 1079.013 413.719 1079.107 408.186 1077.957 402.811 Z  M 898.493 415.24 C 901.709 415.39 904.99 415.476 908.098 416.452 C 913.501 418.106 918.982 419.509 924.372 421.215 C 925.461 429.221 931.394 434.969 935.845 441.282 C 931.802 440.085 928.183 437.795 924.153 436.546 C 915.923 434.035 907.621 431.749 899.441 429.098 C 898.998 424.487 898.885 419.854 898.493 415.24 Z  M 1063.681 407.556 C 1067.614 405.604 1071.808 404.25 1076.185 403.753 C 1076.4 408.396 1076.692 413.042 1077.103 417.672 C 1068.829 421.338 1060.543 424.962 1052.328 428.743 C 1048.862 430.281 1046.025 433.091 1042.423 434.228 C 1044.75 430.649 1046.608 426.81 1048.757 423.123 C 1050.654 420.016 1050.676 416.27 1051.415 412.802 C 1053.018 411.88 1055.608 411.831 1056.45 410.08 C 1059.053 410.244 1061.277 408.368 1063.681 407.556 Z  M 863.796 437.853 C 870.073 433.123 876.006 427.937 882.368 423.32 C 883.898 426.931 886.309 430.306 887.029 434.183 C 885.514 437.794 883.482 441.184 881.845 444.744 C 880.965 446.31 880.383 448.242 878.738 449.192 C 874.896 451.752 870.796 453.903 867.01 456.544 C 864.281 454.708 861.545 452.89 858.739 451.178 C 859.075 447.804 859.651 444.45 860.323 441.123 C 861.074 439.684 862.591 438.878 863.796 437.853 Z  M 1092.814 410.455 C 1093.033 410.27 1093.487 409.916 1093.715 409.74 C 1101.344 414.687 1109.353 419.038 1117.043 423.879 C 1118.447 427.242 1119.326 430.819 1120.178 434.354 C 1117.586 436.347 1115.115 438.486 1112.689 440.672 C 1108.608 438.489 1104.287 436.824 1100.087 434.921 C 1098.649 434.443 1098.034 432.982 1097.194 431.868 C 1094.808 428.201 1092.159 424.706 1089.921 420.953 C 1090.173 417.338 1092.063 414 1092.814 410.455 Z  M 966.477 447.819 C 972.835 449.198 979.364 450.055 985.557 452.059 C 979.861 453.519 974.379 455.665 968.745 457.292 C 968.029 454.132 967.169 450.998 966.477 447.819 Z  M 1000.076 449.209 C 1004.394 447.795 1008.658 446.214 1012.953 444.716 C 1012.636 447.986 1012.345 451.254 1011.804 454.496 C 1006.091 453.587 1000.44 452.324 994.713 451.475 C 996.271 450.248 998.232 449.84 1000.076 449.209 Z  M 853.514 458.731 C 855.05 457.694 856.291 456.036 858.042 455.428 C 860.257 457.357 862.448 459.321 864.639 461.286 C 862.611 463.157 860.547 465.005 858.529 466.893 C 856.893 464.15 855.273 461.398 853.514 458.731 Z  M 1114.971 445.215 C 1117.489 443.142 1119.415 440.484 1121.623 438.098 C 1123.218 439.155 1124.82 440.186 1126.454 441.189 C 1126.435 441.292 1126.397 441.499 1126.378 441.594 C 1124.562 444.108 1123.955 447.252 1122.193 449.797 C 1119.91 448.128 1117.794 445.886 1114.971 445.215 Z  M 846.832 462.49 C 848.483 462.034 850.122 461.527 851.759 461.003 C 853.423 462.72 855.014 464.511 856.703 466.218 C 856.598 468.033 856.382 469.829 856.175 471.634 C 853.802 471.744 851.433 471.761 849.064 471.804 C 848.258 468.709 847.453 465.623 846.832 462.49 Z  M 1128.261 443.289 C 1129.996 443.202 1131.698 443.68 1133.418 443.893 C 1133.318 447.098 1132.85 450.267 1132.612 453.455 C 1130.231 453.686 1127.862 453.976 1125.489 454.214 C 1124.994 452.49 1124.523 450.755 1124.104 449.016 C 1125.578 447.164 1126.786 445.133 1128.261 443.289 Z  M 982.978 457.403 C 984.763 456.648 986.944 456.216 987.763 454.253 C 987.711 454.64 987.607 455.406 987.555 455.784 C 989.866 455.643 992.201 455.484 994.526 455.427 C 997.083 456.072 999.749 457.733 1002.42 456.963 C 1002.356 457.163 1002.238 457.572 1002.182 457.771 C 1011.634 459.65 1020.8 462.766 1030.254 464.679 C 1030.254 464.815 1030.255 465.088 1030.255 465.224 C 1017.251 464.591 1004.24 464.393 991.237 464.041 C 977.976 465.897 964.757 468.143 951.522 470.271 C 952.012 469.949 952.522 469.652 953.042 469.379 C 963.068 465.506 972.993 461.384 982.978 457.403 Z  M 823.492 473.195 C 830.588 470.169 837.635 467.051 844.673 463.909 C 845.611 466.816 846.492 469.744 847.188 472.719 C 840.688 476.397 834.133 480.003 827.778 483.937 C 826.36 480.353 824.768 476.831 823.492 473.195 Z  M 949.743 468.492 C 951.581 464.604 953.267 460.606 955.785 457.091 C 958.957 457.73 962.17 458.093 965.381 458.423 C 960.298 461.976 954.979 465.177 949.743 468.492 Z  M 1015.284 455.294 C 1018.424 454.391 1021.637 453.706 1024.72 452.585 C 1027.753 455.689 1029.796 459.583 1032.211 463.162 C 1026.559 460.56 1020.921 457.923 1015.284 455.294 Z  M 1134.545 454.327 C 1134.59 451.203 1135.271 448.148 1135.798 445.087 C 1143.165 447.305 1150.574 449.375 1157.95 451.593 C 1157.072 455.547 1156.029 459.469 1154.787 463.337 C 1154.691 463.036 1154.499 462.451 1154.404 462.159 C 1147.662 459.858 1141.315 456.533 1134.545 454.327 Z  M 1159.518 454.74 C 1161.752 453.939 1164.438 452.878 1166.729 453.881 C 1167.275 458.093 1166.68 462.353 1166.895 466.587 C 1163.927 464.741 1161.162 462.608 1158.303 460.602 C 1158.696 458.64 1159.055 456.681 1159.518 454.74 Z  M 815.198 476.163 C 817.587 475.914 820.016 475.885 822.359 476.518 C 823.08 478.433 823.702 480.388 824.398 482.313 C 821.738 484.566 819.371 487.142 816.61 489.274 C 816.071 484.908 815.304 480.565 815.198 476.163 Z  M 1168.593 455.543 C 1170.422 455.604 1172.249 455.622 1174.089 455.597 C 1174.298 459.873 1174.592 464.152 1175.165 468.397 C 1173.509 466.781 1171.555 465.449 1170.091 463.659 C 1169.138 461.06 1169.151 458.228 1168.593 455.543 Z  M 808.011 479.366 C 809.836 479.103 811.66 478.814 813.472 478.483 C 812.952 481.92 814.587 486.223 811.593 488.848 C 810.639 489.925 809.668 490.994 808.715 492.079 C 808.568 487.833 808.251 483.597 808.011 479.366 Z  M 799.514 480.385 C 802.143 480.411 804.758 480.753 807.357 481.114 C 807.13 484.463 806.766 487.804 806.282 491.119 C 804.571 492.236 802.909 493.427 801.283 494.667 C 801.08 490.339 800.165 486.091 800.2 481.748 L 799.592 481.983 L 799.514 480.385 Z  M 1175.047 457.343 C 1177.514 456.586 1180.013 455.93 1182.593 455.609 C 1182.63 456.314 1182.714 457.733 1182.759 458.438 C 1185.515 458.447 1188.06 457.319 1190.612 456.437 C 1191.102 461.233 1191.583 466.029 1191.734 470.855 C 1189.301 470.168 1186.85 469.585 1184.383 469.028 C 1183.924 466.03 1183.475 463.031 1182.747 460.094 C 1182.567 463.244 1182.473 466.405 1182.797 469.557 C 1182.654 469.583 1182.359 469.645 1182.208 469.681 C 1180.645 468.724 1179.036 467.856 1177.376 467.102 C 1176.476 463.877 1175.829 460.593 1175.047 457.343 Z  M 791.987 482.288 C 794.326 482.708 796.719 483.849 799.092 482.954 C 800.456 486.371 799.554 490.352 799.558 493.977 C 797.115 494.826 794.723 495.825 792.289 496.699 C 792.617 491.885 791.625 487.096 791.987 482.288 Z  M 975.386 471.207 C 980.492 470.391 985.566 469.056 990.783 469.289 C 998.407 468.216 1006.091 469.143 1013.719 469.723 C 1022.746 470.563 1031.731 471.815 1040.768 472.561 C 1040.705 473.699 1040.308 474.936 1040.881 476.016 C 1044.33 483.707 1047.364 491.579 1050.672 499.339 C 1052.811 504.966 1055.614 510.336 1057.394 516.089 C 1056.601 516.089 1055.014 516.072 1054.22 516.064 C 1054.143 516.581 1054.074 517.097 1054.005 517.622 C 1053.62 515.753 1051.365 516.752 1050.144 517.002 C 1030.005 520.907 1009.718 524.369 989.204 525.382 C 981.819 525.255 974.432 525.895 967.056 525.4 C 955.206 525.46 943.384 524.135 931.546 523.998 C 935.106 509.815 939.158 495.744 942.926 481.616 C 942.96 480.693 942.783 479.809 942.387 478.964 C 953.418 476.51 964.32 473.51 975.386 471.207 Z  M 778.874 491.299 C 780.932 488.837 783.271 486.639 785.419 484.248 C 786.868 484.624 788.323 484.973 789.779 485.331 C 790.04 489.092 790.639 492.814 791.001 496.561 C 788.904 494.735 787.101 492.574 784.847 490.946 C 782.842 490.948 780.861 491.17 778.874 491.299 Z  M 1193.115 459.397 C 1194.192 458.38 1195.846 458.231 1197.179 457.616 C 1199.723 459.626 1202.338 461.554 1204.676 463.817 C 1202.627 463.915 1200.576 463.98 1198.534 464.052 C 1196.743 466.292 1194.879 468.459 1193.061 470.675 C 1193.406 466.917 1193.035 463.155 1193.115 459.397 Z  M 920.833 478.27 C 925.921 476.9 931.24 476.326 936.429 475.324 C 935.865 479.259 935.257 483.178 934.701 487.103 C 929.245 490.553 923.994 494.295 918.584 497.801 C 914.613 500.225 912.158 504.324 909.246 507.83 C 904.801 507.538 900.424 506.593 896.025 505.948 C 897.958 500.501 900.065 495.111 901.911 489.636 C 908.063 485.596 914.529 482.064 920.833 478.27 Z  M 1046.357 468.25 C 1050.829 468.43 1055.306 468.549 1059.784 468.822 C 1061.721 468.705 1063.442 469.737 1065.192 470.425 C 1070.881 472.922 1076.659 475.226 1082.296 477.855 C 1084.918 483.05 1087.639 488.204 1090.32 493.378 C 1086.184 494.703 1081.951 495.71 1077.836 497.094 C 1074.995 494.719 1072.511 491.921 1069.601 489.653 C 1062.957 486.22 1056.251 482.893 1049.509 479.662 C 1048.495 475.847 1047.371 472.065 1046.357 468.25 Z  M 897.292 509.721 C 901.224 510.123 905.12 510.886 909.073 511.21 C 909.753 519.601 909.728 528.054 910.705 536.417 C 903.163 536.249 895.612 536.064 888.089 535.528 C 891.13 526.913 894.259 518.335 897.292 509.721 Z  M 1078.009 500.298 C 1081.874 499.408 1085.651 498.192 1089.517 497.31 C 1093.684 505.432 1097.952 513.514 1101.929 521.734 C 1094.643 523.272 1087.221 524.034 1079.96 525.698 C 1079.378 517.224 1078.405 508.784 1078.009 500.298 Z  M 888.231 571.049 C 888.894 560.601 888.096 550.12 888.561 539.659 C 895.433 540.024 902.303 539.562 909.174 539.51 C 905.291 551.335 901.819 563.303 897.849 575.1 C 894.575 573.921 891.35 572.595 888.231 571.049 Z  M 1081.568 528.4 C 1088.436 527.512 1095.337 527.005 1102.172 525.872 C 1102.874 530.398 1103.247 534.971 1104 539.485 C 1104.227 539.828 1104.689 540.515 1104.915 540.85 C 1104.705 540.769 1104.286 540.609 1104.075 540.52 C 1104.875 546.029 1105.228 551.601 1106.433 557.041 C 1103.445 558.846 1100.38 560.512 1097.354 562.243 C 1092.045 550.988 1086.968 539.615 1081.568 528.4 Z  M 937.754 555.467 C 937.842 555.769 938.025 556.362 938.121 556.655 C 943.852 556.522 949.592 556.526 955.332 556.658 C 963.572 556.022 971.837 556.288 980.078 555.67 C 996.271 555.107 1012.372 552.973 1028.537 551.841 C 1037.597 550.436 1046.799 550.173 1055.86 548.768 C 1056.173 556.636 1055.659 564.507 1056.245 572.367 C 1040.582 575.462 1024.902 578.558 1008.989 580.032 C 986.034 582.456 962.906 581.437 939.935 579.803 C 939.85 571.63 937.276 563.626 937.754 555.467 Z  M 883.951 582.268 C 885.233 580.326 886.363 578.291 887.707 576.396 C 891.138 577.214 894.464 578.398 897.889 579.276 C 896.768 582.376 896.926 585.863 896.057 588.913 C 891.692 587.353 887.945 584.542 883.951 582.268 Z  M 1097.987 566.355 C 1101.126 564.787 1104.465 563.667 1107.585 562.058 C 1109.093 563.888 1110.595 565.744 1112.153 567.545 C 1108.338 570.265 1104.937 573.598 1100.756 575.805 C 1100.272 572.536 1099.107 569.438 1097.987 566.355 Z  M 863.992 625.436 C 870.328 612.522 876.762 599.663 883.098 586.749 C 886.199 587.342 889.196 588.325 892.207 589.247 C 886.718 603.538 880.286 617.472 874.727 631.734 C 873.344 632.634 871.954 633.56 870.436 634.212 C 868.217 633.657 866.103 632.753 863.885 632.223 C 863.511 629.995 862.797 627.534 863.992 625.436 Z  M 1105.228 575.328 C 1107.935 574.18 1110.512 572.632 1113.395 571.976 C 1120.114 581.17 1126.059 590.925 1132.55 600.287 C 1135.079 604.576 1139.485 608.478 1138.467 613.959 C 1136.834 615.489 1134.535 616.193 1132.564 617.241 C 1130.731 616.72 1128.455 616.347 1127.322 614.655 C 1120.13 602.234 1113.02 589.765 1105.697 577.429 C 1105.497 577.366 1105.079 577.231 1104.879 577.167 C 1104.975 576.555 1105.089 575.942 1105.228 575.328 Z  M 1048.434 597.153 C 1050.793 596.583 1053.197 596.171 1055.569 595.651 C 1052.469 602.837 1051.205 610.85 1048.161 617.964 C 1030.779 621.119 1013.345 624.261 995.656 624.911 C 981.65 625.536 967.654 624.6 953.664 624.167 C 950.406 617.043 947.172 609.91 943.889 602.796 C 955.871 604.11 967.909 604.823 979.96 605.092 C 1003.003 605.203 1026.003 602.409 1048.434 597.153 Z  M 855.542 640.362 C 857.386 638.673 859.386 637.154 861.49 635.806 C 863.723 636.694 865.984 637.511 868.275 638.25 C 867.693 640.854 867.19 643.48 866.72 646.111 C 863.11 643.966 859.272 642.252 855.542 640.362 Z  M 1134.991 620.871 C 1137.156 619.921 1139.269 618.846 1141.307 617.656 C 1143.53 618.791 1145.699 620.024 1147.793 621.407 C 1144.385 623.828 1140.752 625.939 1137.522 628.613 C 1136.581 626.064 1135.731 623.475 1134.991 620.871 Z  M 851.248 650.431 C 853.19 648.292 856.098 646.961 858.269 644.936 C 859.416 645.655 860.555 646.391 861.703 647.127 C 861.525 650.695 860.927 654.239 860.945 657.82 C 857.677 655.413 854.334 653.054 851.248 650.431 Z  M 1142.512 628.887 C 1143.616 628.031 1144.721 627.175 1145.843 626.334 C 1148.28 628.002 1151.001 629.19 1153.515 630.742 C 1150.701 633.653 1147.837 636.568 1144.857 639.294 C 1143.961 635.855 1143.282 632.351 1142.512 628.887 Z  M 954.639 645.016 C 966.32 647.339 978.314 646.332 990.148 646.393 C 1005.063 645.854 1019.965 644.71 1034.731 642.517 C 1039.879 641.544 1045.15 640.888 1050.013 638.799 C 1046.587 645.426 1043.461 652.204 1040.043 658.821 C 1016.266 664.506 991.515 665.537 967.196 663.631 C 963.008 657.429 959.064 651.049 954.639 645.016 Z  M 843.398 661.702 C 845.5 659.536 847.429 657.049 850.187 655.659 C 852.127 655.192 853.936 656.525 855.732 657.125 C 855.317 660.589 855.048 664.078 854.822 667.564 C 850.995 665.637 847.078 663.886 843.398 661.702 Z  M 1149.733 638.065 C 1151.468 637.33 1153.042 635.821 1154.998 635.865 C 1157.836 637.02 1160.154 639.096 1162.471 641.044 C 1159.13 643.7 1155.527 646.014 1151.95 648.335 C 1151.368 644.876 1150.71 641.431 1149.733 638.065 Z  M 838.278 673.513 C 840.629 670.845 843.053 667.839 846.114 665.978 C 847.478 666.905 848.852 667.839 850.265 668.711 C 849.014 671.385 848.357 674.285 847.603 677.131 C 844.558 675.81 841.021 675.178 838.278 673.513 Z  M 1156.743 648.724 C 1158.089 647.52 1159.603 646.535 1161.052 645.46 C 1163.704 647.958 1167.178 649.584 1169.365 652.538 C 1166.285 653.71 1163.357 655.247 1160.522 656.914 C 1159.362 654.141 1158.036 651.438 1156.743 648.724 Z  M 827.865 681.164 C 830.269 678.646 833.614 677.482 836.795 676.296 C 838.429 677.043 840.079 677.755 841.721 678.493 C 841.867 681.272 842.268 684.035 842.719 686.786 C 837.772 684.94 832.417 683.897 827.865 681.164 Z  M 1166.61 657.407 C 1168.064 656.29 1169.716 655.466 1171.322 654.586 C 1174.411 655.785 1178.218 655.973 1180.451 658.72 C 1175.977 661.398 1171.153 663.424 1166.58 665.904 C 1166.567 663.073 1166.451 660.232 1166.61 657.407 Z  M 831.128 684.935 C 833.614 685.653 835.993 686.701 838.478 687.41 C 835.336 690.121 832.625 693.299 829.52 696.058 C 830.271 692.385 830.704 688.656 831.128 684.935 Z  M 1170.872 665.813 C 1173.219 664.783 1175.534 663.652 1177.732 662.299 C 1178.386 666.077 1179.762 669.673 1180.651 673.393 C 1177.43 670.813 1174.1 668.376 1170.872 665.813 Z  M 972.924 685.853 C 973.539 685.992 974.785 686.27 975.409 686.417 C 978.923 687.213 982.406 688.446 986.025 688.629 C 993.44 688.021 1000.791 686.701 1008.237 686.449 C 1013.915 686.286 1019.613 686.421 1025.277 686.045 C 1029.418 685.061 1033.194 682.923 1037.29 681.771 C 1033.52 685.725 1028.98 689.098 1025.05 692.687 C 1025.089 692.36 1025.175 691.723 1025.223 691.405 C 1017.793 692.824 1010.204 693.119 1002.686 693.845 C 996.526 693.672 990.259 694.88 984.168 693.662 C 980.34 691.181 976.407 688.8 972.924 685.853 Z  M 995.434 701.964 C 1002.649 702.487 1009.916 701.846 1017.034 700.6 C 1016.342 701.634 1015.695 702.708 1015.084 703.805 L 996.628 705 L 997.799 704.907 C 997.01 703.918 996.222 702.937 995.434 701.964 Z " fill-rule="evenodd" fill="rgb(0,0,0)"></path></svg>