<svg xmlns="http://www.w3.org/2000/svg" style="isolation:isolate" viewBox="752.878 239.012 45.2 22.3">
  <path d="M784.178 250.312c-1.6 1.4-2.8 2.6-3.6 3.6-.7-1-1.6-2-2.7-3.2-.4.4-1.1 1-2.1 2 .6.5 1.2 1.1 1.8 1.6.6.5 1.2 1 1.7 1.3-.5.6-1.2 1.5-2 2.7-.8 1.2-1.4 2.2-1.9 3-.3-.6-.9-1.5-1.9-2.8-1-1.2-1.7-2-2.1-2.5.4-.2.8-.5 1.2-.9.4-.3 1-.8 1.6-1.4-.9-.8-1.8-1.7-2.6-2.7-.8.7-1.6 1.7-2.2 2.8-.3-.4-.8-.9-1.5-1.5s-1.4-1.3-2.2-2c-1.6.9-3.1 1.4-4.5 1.4-.7 0-1.2-.1-1.6-.4-.4-.2-.6-.6-.6-1 0-.3.1-.6.4-.9.3-.2.6-.4 1-.4.3 0 .6.1.8.3-.3-.1-.5-.1-.5-.1-.4 0-.7.1-.9.3-.2.2-.4.4-.4.7 0 .7.6 1 1.7 1 1.3 0 2.8-.4 4.2-1.3-1-.9-2.1-1.7-3.2-2.4s-2.2-1.2-3.2-1.6c-1-.4-1.9-.6-2.7-.6-.9 0-1.6.2-2.1.7-.6.4-.8 1-.8 1.6 0 .4.1.8.4 1.2.3.3.6.5.9.5.4 0 .7-.2.9-.6.2.2.3.5.3.8.5-.3.8-.8.8-1.4 0-.2 0-.5-.1-.7.3.3.5.7.5 1.1 0 .5-.2.8-.5 1.2-.3.4-.8.5-1.3.5-.6 0-1.2-.2-1.6-.7-.5-.5-.7-1.1-.7-1.8 0-.5.2-1 .5-1.4.3-.4.8-.8 1.4-1 .6-.3 1.2-.4 1.9-.4.8 0 1.6.1 2.4.3.8.2 1.6.5 2.4.8.8.4 1.6.8 2.5 1.3.8.5 1.7 1.2 2.6 1.9 1-.8 2.2-1.8 3.4-3.2.7 1.1 1.5 2.3 2.5 3.4.7-.7 1.3-1.4 2-2.1-.4-.5-1-1-1.8-1.7s-1.5-1.3-2.2-1.8c-.8-.6-1.5-1-2-1.2-.5-.2-1-.4-1.4-.4-.5 0-.8.1-1 .4-.2.3-.3.7-.3 1.2 0-.3-.1-.5-.1-.6 0-.4.2-.8.6-1.1.4-.3.9-.4 1.6-.4.4 0 .8.1 1.3.2s1 .3 1.6.6c.6.3 1.1.5 1.6.9 1-1.2 2.1-2.6 3.2-4.4.6 1 1.8 2.5 3.6 4.5 1-.6 1.8-1.1 2.4-1.4.7-.3 1.3-.4 1.9-.4.4 0 .7.1 1 .2.3.1.5.3.7.5.2.2.3.5.3.8 0 .2-.1.5-.2.7l-.3-.5c0-.4-.2-.8-.5-1-.3-.3-.7-.4-1.2-.4-.6 0-1.4.2-2.4.7-.6.3-1.2.7-1.8 1.1-.7.5-1.2.9-1.6 1.2-.2.2-.4.3-.5.4-.1.1-.3.2-.4.3-.1.1-.3.3-.5.4.3.2.7.6 1.4 1.2l1.5 1.5c.2-.2.6-.6 1.2-1.3.6-.7 1.1-1.2 1.4-1.6.4.4.7.8 1.1 1.1.4.3.7.7 1.1 1l1.2.9c.7-.6 1.4-1.1 2.2-1.7.8-.5 1.6-1 2.5-1.3.9-.4 1.7-.7 2.5-.9.8-.2 1.6-.3 2.3-.3 1 0 1.9.3 2.6.8.7.5 1 1.2 1 2.1 0 .7-.2 1.3-.7 1.7-.5.5-1 .7-1.6.7-.5 0-1-.2-1.4-.5-.4-.4-.6-.8-.6-1.3 0-.2 0-.4.1-.7 0 .5.1.8.3 1.1.1.2.4.5.7.6v-.3-.3c.4.3.8.5 1.2.5.5 0 .9-.1 1.1-.4.3-.3.4-.7.4-1.2 0-.7-.3-1.3-.9-1.7-.6-.4-1.4-.7-2.3-.7-1.8 0-3.9.8-6.4 2.3-1 .6-1.9 1.2-2.7 1.9.6.5 1.4.9 2.2 1.2.9.3 1.6.5 2.3.5.5 0 .9-.1 1.1-.3.3-.2.4-.5.4-.8 0-.2-.1-.4-.3-.6-.2-.1-.4-.2-.8-.2-.2 0-.5.1-.9.2.3-.3.7-.5 1.1-.5.3 0 .6.1.9.3.2.2.4.5.4.8 0 .5-.3.9-.8 1.2-.5.3-1.2.5-2 .5-.7 0-1.5-.1-2.3-.3-.8-.3-1.6-.6-2.4-1zm-14.8 2.5l.3-.5c-.6-.6-1.4-1.4-2.5-2.3-1.1-.9-2.3-1.7-3.4-2.5-1.9-1.3-3.7-2-5.3-2.2 1.4.5 2.6 1 3.6 1.6 1 .5 2 1.3 3.2 2.2 1.2 1 2.3 1.8 3.1 2.6.2.3.6.6 1 1.1zm-2.6-3.6c1.7 1.5 2.7 2.4 3.1 2.8.4-.5.8-1 1.3-1.5-.8-.9-1.6-1.9-2.3-3-1 .9-1.7 1.5-2.1 1.7zm14.6 3.2c-.4-.4-.9-1.1-1.7-2-.9-1.1-2-2.2-3.3-3.3-1.3-1.2-2.4-2.1-3.5-2.8l-1.8-1.2c-.6-.3-1.2-.6-1.7-.8-.5-.2-1.1-.3-1.7-.4 1.3.4 2.7 1.1 4.2 2.2.5.4 1.1.8 1.7 1.4.6.5 1.2 1.1 1.8 1.6.6.5 1.2 1.2 2 2 .9.9 1.7 1.9 2.6 2.9.2.3.5.6.8 1l.6-.6zm-3.3 3.7l.4-.5c-.9-.6-1.7-1.3-2.5-2.1-.6-.6-1.1-1.1-1.5-1.4l-1.3-1.3c-.5-.5-1-1.1-1.6-1.8-.8-.9-1.4-1.7-1.9-2.4l-.5.5c.7.9 1.3 1.7 1.9 2.3.6.7 1.2 1.4 2 2.2.9.9 1.7 1.7 2.6 2.5.9.9 1.7 1.5 2.4 2zm-2.3 3.3c-.3-.4-.8-1.1-1.4-1.9-.7-.9-1.3-1.5-1.7-2.1l-.5.3c1.4 1.5 2.5 3 3.4 4.3l.2-.6zm-3.3-15.9c.6.4 1.3.8 1.9 1.3.6.5 1.1.9 1.4 1.2.3-.3.6-.5.9-.8.3-.2.6-.5.9-.7-.5-.5-1-1.1-1.6-1.7-.6-.7-1-1.3-1.5-1.8-.9 1.1-1.5 1.9-2 2.5zm.1 6c1.2 1.3 2.2 2.3 2.8 2.9.9-.8 1.6-1.5 2.1-2-.7-.8-1.6-1.8-2.8-2.9-.6.5-1.3 1.2-2.1 2zm.3 5.6c1.2 1.4 2.3 2.7 3.2 3.9.8-1.1 1.4-1.9 1.7-2.3-1.2-.9-2.4-1.9-3.4-2.9-.2.2-.7.7-1.5 1.3zm2.4-15.5l-.4.7c1.3 1.7 2.3 3 3.1 3.7l.6-.5c-.6-.6-1.2-1.2-1.7-1.9-.5-.6-1.1-1.3-1.6-2zm3.9 9.6c.2.2.6.6 1.3 1.4.7.8 1 1.2 1.2 1.4.4-.4 1.1-1.1 2.1-2-.7-.4-1.7-1.2-3-2.4-.1 0-.6.6-1.6 1.6zm10.3 2.1c-1.1-.1-2.2-.5-3.3-1-1.1-.5-2.1-1.3-3.1-2.2-.4-.4-.9-.9-1.6-1.4l-.4.5c.7.8 1.5 1.5 2.5 2.1.9.6 1.9 1.1 2.9 1.5 1 .3 2 .5 3 .5z"/>
</svg>