<svg xmlns="http://www.w3.org/2000/svg" viewBox="222.46 98.997 209.54 164.729" width="279.387" height="219.639"><path d="M430.107 98.997h0l.63 1.262q-18.935 10.098-30.926 29.348h0q-11.992 19.25-11.992 40.078h0q0 3.155.947 4.733h0q.946 1.578 2.524 2.525h0q1.578.947 4.734 1.578h0q16.4 2.524 26.192 14.2h0Q432 204.398 432 220.807h0q0 18.304-12.623 30.61h0q-12.623 12.307-31.557 12.307h0q-21.46 0-34.713-14.516h0q-13.254-14.516-13.254-38.5h0q0-37.87 25.246-70.057h0q25.245-32.188 65.008-41.655zm-117.393 0h0l.63 1.262q-18.935 10.098-30.926 29.348h0q-11.992 19.25-11.992 40.078h0q0 3.155.947 4.733h0q.946 1.578 2.524 2.525h0q1.578.947 4.734 1.578h0q16.4 2.524 26.192 14.2h0q9.783 11.676 9.783 28.085h0q0 18.304-12.623 30.61h0q-12.623 12.307-31.557 12.307h0q-21.46 0-34.713-14.516h0q-13.254-14.516-13.254-38.5h0q0-37.87 25.246-70.057h0q25.246-32.188 65.008-41.655z"/></svg>