<svg xmlns="http://www.w3.org/2000/svg" viewBox="476.9 321.8 816.2 90.9" width="1088.267" height="121.2"><path d="M1064.9 412.7h0q7.1 0 14.4-5.6h0q7.2-5.5 7.2-17.1h0v-59.3q0-5.7 3.5-7.5h0-18.7q3.5 1.2 3.5 7.5h0V390q0 6.5-2.3 12.5h0q-2.7 6.8-7.6 10.2zm33.9-28.1l6.5-37q6.2 0 8.8 14h0l4.3 24.4q.3 1.7.3 3.9h0q0 5.2-3 7.6h21.1q-4.7-2.1-6.4-11.3h0l-10.8-63h-18.7q4 2.8 4 8.8h0q0 1.8-.1 2.2h0l-9.2 52.1q-.2.8-.4 1.45h0q-.2.65-.4 1.15h0q-2.4 6.4-6.6 8.6h16q-3.2-1.7-4.4-3.85h0q-1.2-2.15-1.2-5.95h0q0-1 .05-1.8h0q.05-.8.15-1.3h0zM1111 344h-5l.9-5.2q.5-3 .95-5.25h0q.45-2.25.65-3.75h0q1 5.3 1.65 8.8h0q.65 3.5.85 5.4h0zm55.4 8.4v-30.6q-3.6 2.6-4.2 2.4h0q-6.3-1.6-8-1.6h0q-7.9 0-13.7 8.5h0q-5.9 8.6-5.9 24.9h0q0 12.5 5.7 27.5h0q5.7 15 15.4 15h0q5.4 0 8.3-5.7h0q4-8.1 4-19.3h0q0-3.2-1.5-3.2h0q-2.3 0-2.3 2.1h0q0 10.8-2.2 17.8h0q-1.6 5.2-5.4 5.2h0q-3.3 0-5.1-5.6h0q-.8-2.6-1.35-4.75h0q-.55-2.15-.95-3.85h0q-.9-10.6-.9-16.6h0q-.3-6.4-.3-9.5h0q0-7.4.3-13h0q.3-5.6 1-9.5h0q1.1-6.8 6-6.8h0q2.8 0 3.9 2.3h0q1.3 3 1.6 6.5h0q0 1.7 0 3.5h0q0 1.7.1 3.4h0q.1 2.9 1.5 6.1h0q1.7 3.6 4 4.8h0zM1189 390v-42.4q0-.4.2-.4h0q1.2 0 2.6 2.7h0q1.1 2.4 1.4 3.9h0q1.2 6.1 2.1 10.6h0q.9 4.5 1.5 7.6h0l2.5 13.5q1 4 1.8 7h0q.8 3 1.4 5h16.1q-1.4-1.4-2.45-2.65h0q-1.05-1.25-1.75-2.35h0q-1.3-2.2-2.7-7.6h0q-.4-1.5-.9-3.55h0q-.5-2.05-1-4.65h0l-3.6-17.6q-1.8-9.2-3.7-11.6h0q-2.1-3-5.9-3.6h0q-.7-.1-1.2-.1h0q-.4 0-.8 0h0q-.3-.1-.6-.6h0q.1-.3.4-.6h0q4-4.8 6.35-7.5h0q2.35-2.7 3.05-3.5h0q4.9-4.9 11.6-8.4h0-16q1.6 1 1.6 3.4h0q0 2.6-2.9 6.1h0l-7.2 8.8q-.2.3-1.1.8h0q-.8 0-.8-1.6h0v-10q0-5.7 3.5-7.5h0-18.7q3.5 1.2 3.5 7.5h0V390q0 6-3.5 7.5h18.7q-3.5-2-3.5-7.5h0zm35.5 7.5h31.6v-22.7h-.5q-.9 6.2-3.6 12.1h0q-3.8 7.7-8.5 7.7h0q-3.8 0-3.8-4.4h0v-39.4q0-3.2 3.2-3.2h0q3.3 0 5.9 6.3h0q2.1 5.3 2.1 9.2h.6v-18.9h-11.8v-13.8q0-3.4 3.2-3.4h0q6.7 0 10 5.6h0q2.7 4.7 2.7 11.8h.5v-21.2h-31.6q3.5 1.2 3.5 7.5h0V390q0 3.5-1.2 5.1h0q-1.7 2.2-2.3 2.4h0zm68.6-74.3H1260v20.7h.6q1.5-7.7 4-12.7h0q2.5-4.8 4.6-4.8h0q1.5 0 1.5 1.2h0V390q0 6-3.5 7.5h18.7q-3.5-2-3.5-7.5h0v-62.4q0-1.2 1.5-1.2h0q2.1 0 4.5 4.2h0q3 5.3 4.2 13.3h.5v-20.7zm-397.8 23.6V390q0 6-3.5 7.5h18.7q-3.5-2-3.5-7.5h0v-59.3q0-5.7 3.5-7.5h0-18.7q3.5 1.2 3.5 7.5h0V344H885v-13.3q0-5.7 3.5-7.5h0-18.7q3.5 1.2 3.5 7.5h0V390q0 6-3.5 7.5h18.7q-3.5-2-3.5-7.5h0v-32.5q-.2-2.4.55-4.35h0q.75-1.95 2.15-3.35h0q1.4-1.4 3.35-2.2h0q1.95-.8 4.25-.8h0zm36.2 43.2v-59.3q0-5.7 3.5-7.5h0-18.7q3.5 1.2 3.5 7.5h0V390q0 6-3.5 7.5H935q-3.5-2-3.5-7.5h0zm43.7 8.7h0v-46.5q0-5.7 3.5-7.5h0H960q3.5 1.4 3.5 7.5h0V391q0 4-2.3 4h0q-3.6 0-4.9-7.9h0q-2.1-12.1-2.1-32h0q0-12.4 1.9-23.1h0q1.1-6.2 5.4-6.2h0q4.3 0 6 5.6h0q.2 1.4.4 2.35h0q.2.95.3 1.65h0q.9 4.4 5.2 6.8h0v-20.4q-.9.8-1.8 1.65h0q-.9.85-2.4.85h0q-.8 0-2.6-.7h0q-2-.8-2.5-.9h0q-.5-.1-1.4-.1h0q-.9 0-2.3 0h0q-4.1 0-8.8 3.8h0q-10.8 8.9-10.8 29.6h0q0 10 2.8 19.3h0q3.2 10.8 8.9 17.1h0q4.9 5.7 9.4 5.7h0q1.5 0 4.3-1.1h0q3-1.1 4.4-1.1h0q2.5 0 4.6 2.8zm31.7-51.9V390q0 6-3.5 7.5h18.7q-3.5-2-3.5-7.5h0v-59.3q0-5.7 3.5-7.5h0-18.7q3.5 1.2 3.5 7.5h0V344h-10.3v-13.3q0-5.7 3.5-7.5h0-18.7q3.5 1.2 3.5 7.5h0V390q0 6-3.5 7.5h18.7q-3.5-2-3.5-7.5h0v-32.5q-.2-2.4.55-4.35h0q.75-1.95 2.15-3.35h0q1.4-1.4 3.35-2.2h0q1.95-.8 4.25-.8h0zm-476-15.3h0q0-8.3-13.6-8.3h0-23.6q-.4 0-1.15-.1h0q-.75-.1-1.05-.1h0-2.2q-5.2 0-8.6 2.8h0q-3.8 3-3.8 8h0q0 4.1 2.8 7.3h0q2.9 3.2 6.7 3.2h0q4.4 0 5.6-2h0q-5.6-1.1-5.6-7.6h0q0-3.3 1.8-5.7h0q1.8-2.4 5-2.4h0q4.8 0 4.8 4.1h0V390q0 4.5-3.5 7.5h15.6q6.1 0 10.3-4.4h0q2-2 3.45-3.95h0q1.45-1.95 2.55-3.65h0q6.7-10.7 6.7-22h0q0-16.8-16-19.2h0q13.8-5.2 13.8-12.8zm-21.2 60.3V349q0-2 1.9-2h0q9.2 0 9.2 20h0q0 9.9-1.3 15.2h0q-2.9 12.2-7.4 12.2h0q-2.4 0-2.4-2.6h0zm0-51.2v-11q0-3.3 4.8-3.3h0q2.6 0 4.25 1.65h0q1.65 1.65 1.65 4.25h0q0 4.6-3.3 7.7h0q-3.4 3.2-5.6 3.2h0q-1.8 0-1.8-2.5h0zm29.2 56.9h31.6v-22.7h-.5q-.9 6.2-3.6 12.1h0q-3.8 7.7-8.5 7.7h0q-3.8 0-3.8-4.4h0v-39.4q0-3.2 3.2-3.2h0q3.3 0 5.9 6.3h0q2.1 5.3 2.1 9.2h.6v-18.9h-11.8v-13.8q0-3.4 3.2-3.4h0q6.7 0 10 5.6h0q2.7 4.7 2.7 11.8h.5v-21.2h-31.6q3.5 1.2 3.5 7.5h0V390q0 3.5-1.2 5.1h0q-1.7 2.2-2.3 2.4h0zm52.7-55.9v-10.9q0-4.3 3.9-4.3h0q5.2 0 5.2 6.4h0q0 4.1-2.6 7.2h0q-2.6 3-5.1 3h0q-1.4 0-1.4-1.4h0zm11.9-18.4h-27.1q3.5 1.2 3.5 7.5h0V390q0 6-3.5 7.5h18.7q-3.5-2-3.5-7.5h0v-41.7q4.3.5 5.3 5.4h0q.7 2.9 1.65 8.35h0q.95 5.45 2.35 13.55h0q2.4 14 4.5 21.9h15.8q-4.3-2.8-5.7-7.4h0q-2-8.7-3.45-15.1h0q-1.45-6.4-2.25-10.9h0q-1.1-5.7-1.65-10.45h0q-.55-4.75-.55-8.55h0q-4.9 1.1-8.2 1.1h0q-.9 0-1.95-.1h0q-1.05-.1-2.25-.3h0q7.4-1.4 12-4.4h0q6.3-4 6.3-10.2h0q0-4-3.1-6.1h0q-2.6-1.9-6.9-1.9h0zm38.8 66.8v-42.4q0-.4.2-.4h0q1.2 0 2.6 2.7h0q1.1 2.4 1.4 3.9h0q1.2 6.1 2.1 10.6h0q.9 4.5 1.5 7.6h0l2.5 13.5q1 4 1.8 7h0q.8 3 1.4 5h16.1q-1.4-1.4-2.45-2.65h0q-1.05-1.25-1.75-2.35h0q-1.3-2.2-2.7-7.6h0q-.4-1.5-.9-3.55h0q-.5-2.05-1-4.65h0l-3.6-17.6q-1.8-9.2-3.7-11.6h0q-2.1-3-5.9-3.6h0q-.7-.1-1.2-.1h0q-.4 0-.8 0h0q-.3-.1-.6-.6h0q.1-.3.4-.6h0q4-4.8 6.35-7.5h0q2.35-2.7 3.05-3.5h0q4.9-4.9 11.6-8.4h0-16q1.6 1 1.6 3.4h0q0 2.6-2.9 6.1h0l-7.2 8.8q-.2.3-1.1.8h0q-.8 0-.8-1.6h0v-10q0-5.7 3.5-7.5h0-18.7q3.5 1.2 3.5 7.5h0V390q0 6-3.5 7.5h18.7q-3.5-2-3.5-7.5h0zm35.5 7.5h31.6v-22.7h-.5q-.9 6.2-3.6 12.1h0q-3.8 7.7-8.5 7.7h0q-3.8 0-3.8-4.4h0v-39.4q0-3.2 3.2-3.2h0q3.3 0 5.9 6.3h0q2.1 5.3 2.1 9.2h.6v-18.9H693v-13.8q0-3.4 3.2-3.4h0q6.7 0 10 5.6h0q2.7 4.7 2.7 11.8h.5v-21.2h-31.6q3.5 1.2 3.5 7.5h0V390q0 3.5-1.2 5.1h0q-1.7 2.2-2.3 2.4h0zm67.7 0v-22.7h-.6q-.8 6.2-3.6 12h0q-3.8 7.8-8.5 7.8h0q-2.3 0-2.3-4.4h0v-59.5q0-5.7 3.5-7.5h0-18.7q3.5 1.2 3.5 7.5h0V390q0 6-3.5 7.5h30.2zm5.8 0h31.6v-22.7h-.5q-.9 6.2-3.6 12.1h0q-3.8 7.7-8.5 7.7h0q-3.8 0-3.8-4.4h0v-39.4q0-3.2 3.2-3.2h0q3.3 0 5.9 6.3h0q2.1 5.3 2.1 9.2h.6v-18.9h-11.8v-13.8q0-3.4 3.2-3.4h0q6.7 0 10 5.6h0q2.7 4.7 2.7 11.8h.5v-21.2h-31.6q3.5 1.2 3.5 7.5h0V390q0 3.5-1.2 5.1h0q-1.7 2.2-2.3 2.4h0zm57.9-74.3h-20.4q3.2 1.5 4.7 5h0l7.6 17.8v44q0 6-3.5 7.5h18.7q-3.5-2-3.5-7.5h0v-44l6.6-15q2.4-5.6 7.6-7.8h0-12.3q2.1 1.4 2.1 4h0q0 2.9-.6 4.2h0l-4.3 9.7-4.1-9.7q-1-2.3-1-4.2h0q0-2.8 2.4-4h0z" fill="#fff"/></svg>