<?xml version="1.0" encoding="UTF-8" standalone="no"?><!-- Generator: Gravit.io --><svg xmlns="http://www.w3.org/2000/svg" xmlns:xlink="http://www.w3.org/1999/xlink" style="isolation:isolate" viewBox="526 770.533 1088.267 141.467" width="1088.267pt" height="141.467pt"><g><path d=" M 1310 912 L 1310 912 Q 1319.467 912 1329.2 904.533 L 1329.2 904.533 Q 1338.8 897.2 1338.8 881.733 L 1338.8 881.733 L 1338.8 802.667 Q 1338.8 795.067 1343.467 792.667 L 1343.467 792.667 L 1318.533 792.667 Q 1323.2 794.267 1323.2 802.667 L 1323.2 802.667 L 1323.2 881.733 Q 1323.2 890.4 1320.133 898.4 L 1320.133 898.4 Q 1316.533 907.467 1310 912 L 1310 912 Z  M 1355.2 874.533 L 1363.867 825.2 Q 1372.133 825.2 1375.6 843.867 L 1375.6 843.867 L 1381.333 876.4 Q 1381.733 878.667 1381.733 881.6 L 1381.733 881.6 Q 1381.733 888.533 1377.733 891.733 L 1405.867 891.733 Q 1399.6 888.933 1397.333 876.667 L 1397.333 876.667 L 1382.933 792.667 L 1358 792.667 Q 1363.333 796.4 1363.333 804.4 L 1363.333 804.4 Q 1363.333 806.8 1363.2 807.333 L 1363.2 807.333 L 1350.933 876.8 Q 1350.667 877.867 1350.4 878.733 L 1350.4 878.733 Q 1350.133 879.6 1349.867 880.267 L 1349.867 880.267 Q 1346.667 888.8 1341.067 891.733 L 1362.4 891.733 Q 1358.133 889.467 1356.533 886.6 L 1356.533 886.6 Q 1354.933 883.733 1354.933 878.667 L 1354.933 878.667 Q 1354.933 877.333 1355 876.267 L 1355 876.267 Q 1355.067 875.2 1355.2 874.533 L 1355.2 874.533 L 1355.2 874.533 Z  M 1371.467 820.4 L 1364.8 820.4 L 1366 813.467 Q 1366.667 809.467 1367.267 806.467 L 1367.267 806.467 Q 1367.867 803.467 1368.133 801.467 L 1368.133 801.467 Q 1369.467 808.533 1370.333 813.2 L 1370.333 813.2 Q 1371.2 817.867 1371.467 820.4 L 1371.467 820.4 L 1371.467 820.4 Z  M 1445.333 831.6 L 1445.333 790.8 Q 1440.533 794.267 1439.733 794 L 1439.733 794 Q 1431.333 791.867 1429.067 791.867 L 1429.067 791.867 Q 1418.533 791.867 1410.8 803.2 L 1410.8 803.2 Q 1402.933 814.667 1402.933 836.4 L 1402.933 836.4 Q 1402.933 853.067 1410.533 873.067 L 1410.533 873.067 Q 1418.133 893.067 1431.067 893.067 L 1431.067 893.067 Q 1438.267 893.067 1442.133 885.467 L 1442.133 885.467 Q 1447.467 874.667 1447.467 859.733 L 1447.467 859.733 Q 1447.467 855.467 1445.467 855.467 L 1445.467 855.467 Q 1442.4 855.467 1442.4 858.267 L 1442.4 858.267 Q 1442.4 872.667 1439.467 882 L 1439.467 882 Q 1437.333 888.933 1432.267 888.933 L 1432.267 888.933 Q 1427.867 888.933 1425.467 881.467 L 1425.467 881.467 Q 1424.4 878 1423.667 875.133 L 1423.667 875.133 Q 1422.933 872.267 1422.4 870 L 1422.4 870 Q 1421.2 855.867 1421.2 847.867 L 1421.2 847.867 Q 1420.8 839.333 1420.8 835.2 L 1420.8 835.2 Q 1420.8 825.333 1421.2 817.867 L 1421.2 817.867 Q 1421.6 810.4 1422.533 805.2 L 1422.533 805.2 Q 1424 796.133 1430.533 796.133 L 1430.533 796.133 Q 1434.267 796.133 1435.733 799.2 L 1435.733 799.2 Q 1437.467 803.2 1437.867 807.867 L 1437.867 807.867 Q 1437.867 810.133 1437.867 812.533 L 1437.867 812.533 Q 1437.867 814.8 1438 817.067 L 1438 817.067 Q 1438.133 820.933 1440 825.2 L 1440 825.2 Q 1442.267 830 1445.333 831.6 L 1445.333 831.6 L 1445.333 831.6 Z  M 1475.467 881.733 L 1475.467 825.2 Q 1475.467 824.667 1475.733 824.667 L 1475.733 824.667 Q 1477.333 824.667 1479.2 828.267 L 1479.2 828.267 Q 1480.667 831.467 1481.067 833.467 L 1481.067 833.467 Q 1482.667 841.6 1483.867 847.6 L 1483.867 847.6 Q 1485.067 853.6 1485.867 857.733 L 1485.867 857.733 L 1489.2 875.733 Q 1490.533 881.067 1491.6 885.067 L 1491.6 885.067 Q 1492.667 889.067 1493.467 891.733 L 1514.933 891.733 Q 1513.067 889.867 1511.667 888.2 L 1511.667 888.2 Q 1510.267 886.533 1509.333 885.067 L 1509.333 885.067 Q 1507.6 882.133 1505.733 874.933 L 1505.733 874.933 Q 1505.2 872.933 1504.533 870.2 L 1504.533 870.2 Q 1503.867 867.467 1503.2 864 L 1503.2 864 L 1498.4 840.533 Q 1496 828.267 1493.467 825.067 L 1493.467 825.067 Q 1490.667 821.067 1485.6 820.267 L 1485.6 820.267 Q 1484.667 820.133 1484 820.133 L 1484 820.133 Q 1483.467 820.133 1482.933 820.133 L 1482.933 820.133 Q 1482.533 820 1482.133 819.333 L 1482.133 819.333 Q 1482.267 818.933 1482.667 818.533 L 1482.667 818.533 Q 1488 812.133 1491.133 808.533 L 1491.133 808.533 Q 1494.267 804.933 1495.2 803.867 L 1495.2 803.867 Q 1501.733 797.333 1510.667 792.667 L 1510.667 792.667 L 1489.333 792.667 Q 1491.467 794 1491.467 797.2 L 1491.467 797.2 Q 1491.467 800.667 1487.6 805.333 L 1487.6 805.333 L 1478 817.067 Q 1477.733 817.467 1476.533 818.133 L 1476.533 818.133 Q 1475.467 818.133 1475.467 816 L 1475.467 816 L 1475.467 802.667 Q 1475.467 795.067 1480.133 792.667 L 1480.133 792.667 L 1455.2 792.667 Q 1459.867 794.267 1459.867 802.667 L 1459.867 802.667 L 1459.867 881.733 Q 1459.867 889.733 1455.2 891.733 L 1480.133 891.733 Q 1475.467 889.067 1475.467 881.733 L 1475.467 881.733 L 1475.467 881.733 Z  M 1522.8 891.733 L 1564.933 891.733 L 1564.933 861.467 L 1564.267 861.467 Q 1563.067 869.733 1559.467 877.6 L 1559.467 877.6 Q 1554.4 887.867 1548.133 887.867 L 1548.133 887.867 Q 1543.067 887.867 1543.067 882 L 1543.067 882 L 1543.067 829.467 Q 1543.067 825.2 1547.333 825.2 L 1547.333 825.2 Q 1551.733 825.2 1555.2 833.6 L 1555.2 833.6 Q 1558 840.667 1558 845.867 L 1558.8 845.867 L 1558.8 820.667 L 1543.067 820.667 L 1543.067 802.267 Q 1543.067 797.733 1547.333 797.733 L 1547.333 797.733 Q 1556.267 797.733 1560.667 805.2 L 1560.667 805.2 Q 1564.267 811.467 1564.267 820.933 L 1564.933 820.933 L 1564.933 792.667 L 1522.8 792.667 Q 1527.467 794.267 1527.467 802.667 L 1527.467 802.667 L 1527.467 881.733 Q 1527.467 886.4 1525.867 888.533 L 1525.867 888.533 Q 1523.6 891.467 1522.8 891.733 L 1522.8 891.733 L 1522.8 891.733 Z  M 1614.267 792.667 L 1570.133 792.667 L 1570.133 820.267 L 1570.933 820.267 Q 1572.933 810 1576.267 803.333 L 1576.267 803.333 Q 1579.6 796.933 1582.4 796.933 L 1582.4 796.933 Q 1584.4 796.933 1584.4 798.533 L 1584.4 798.533 L 1584.4 881.733 Q 1584.4 889.733 1579.733 891.733 L 1604.667 891.733 Q 1600 889.067 1600 881.733 L 1600 881.733 L 1600 798.533 Q 1600 796.933 1602 796.933 L 1602 796.933 Q 1604.8 796.933 1608 802.533 L 1608 802.533 Q 1612 809.6 1613.6 820.267 L 1614.267 820.267 L 1614.267 792.667 L 1614.267 792.667 Z  M 1083.867 824.133 L 1083.867 881.733 Q 1083.867 889.733 1079.2 891.733 L 1104.133 891.733 Q 1099.467 889.067 1099.467 881.733 L 1099.467 881.733 L 1099.467 802.667 Q 1099.467 795.067 1104.133 792.667 L 1104.133 792.667 L 1079.2 792.667 Q 1083.867 794.267 1083.867 802.667 L 1083.867 802.667 L 1083.867 820.4 L 1070.133 820.4 L 1070.133 802.667 Q 1070.133 795.067 1074.8 792.667 L 1074.8 792.667 L 1049.867 792.667 Q 1054.533 794.267 1054.533 802.667 L 1054.533 802.667 L 1054.533 881.733 Q 1054.533 889.733 1049.867 891.733 L 1074.8 891.733 Q 1070.133 889.067 1070.133 881.733 L 1070.133 881.733 L 1070.133 838.4 Q 1069.867 835.2 1070.867 832.6 L 1070.867 832.6 Q 1071.867 830 1073.733 828.133 L 1073.733 828.133 Q 1075.6 826.267 1078.2 825.2 L 1078.2 825.2 Q 1080.8 824.133 1083.867 824.133 L 1083.867 824.133 L 1083.867 824.133 Z  M 1132.133 881.733 L 1132.133 802.667 Q 1132.133 795.067 1136.8 792.667 L 1136.8 792.667 L 1111.867 792.667 Q 1116.533 794.267 1116.533 802.667 L 1116.533 802.667 L 1116.533 881.733 Q 1116.533 889.733 1111.867 891.733 L 1136.8 891.733 Q 1132.133 889.067 1132.133 881.733 L 1132.133 881.733 Z  M 1190.4 893.333 L 1190.4 893.333 L 1190.4 831.333 Q 1190.4 823.733 1195.067 821.333 L 1195.067 821.333 L 1170.133 821.333 Q 1174.8 823.2 1174.8 831.333 L 1174.8 831.333 L 1174.8 883.067 Q 1174.8 888.4 1171.733 888.4 L 1171.733 888.4 Q 1166.933 888.4 1165.2 877.867 L 1165.2 877.867 Q 1162.4 861.733 1162.4 835.2 L 1162.4 835.2 Q 1162.4 818.667 1164.933 804.4 L 1164.933 804.4 Q 1166.4 796.133 1172.133 796.133 L 1172.133 796.133 Q 1177.867 796.133 1180.133 803.6 L 1180.133 803.6 Q 1180.4 805.467 1180.667 806.733 L 1180.667 806.733 Q 1180.933 808 1181.067 808.933 L 1181.067 808.933 Q 1182.267 814.8 1188 818 L 1188 818 L 1188 790.8 Q 1186.8 791.867 1185.6 793 L 1185.6 793 Q 1184.4 794.133 1182.4 794.133 L 1182.4 794.133 Q 1181.333 794.133 1178.933 793.2 L 1178.933 793.2 Q 1176.267 792.133 1175.6 792 L 1175.6 792 Q 1174.933 791.867 1173.733 791.867 L 1173.733 791.867 Q 1172.533 791.867 1170.667 791.867 L 1170.667 791.867 Q 1165.2 791.867 1158.933 796.933 L 1158.933 796.933 Q 1144.533 808.8 1144.533 836.4 L 1144.533 836.4 Q 1144.533 849.733 1148.267 862.133 L 1148.267 862.133 Q 1152.533 876.533 1160.133 884.933 L 1160.133 884.933 Q 1166.667 892.533 1172.667 892.533 L 1172.667 892.533 Q 1174.667 892.533 1178.4 891.067 L 1178.4 891.067 Q 1182.4 889.6 1184.267 889.6 L 1184.267 889.6 Q 1187.6 889.6 1190.4 893.333 L 1190.4 893.333 Z  M 1232.667 824.133 L 1232.667 881.733 Q 1232.667 889.733 1228 891.733 L 1252.933 891.733 Q 1248.267 889.067 1248.267 881.733 L 1248.267 881.733 L 1248.267 802.667 Q 1248.267 795.067 1252.933 792.667 L 1252.933 792.667 L 1228 792.667 Q 1232.667 794.267 1232.667 802.667 L 1232.667 802.667 L 1232.667 820.4 L 1218.933 820.4 L 1218.933 802.667 Q 1218.933 795.067 1223.6 792.667 L 1223.6 792.667 L 1198.667 792.667 Q 1203.333 794.267 1203.333 802.667 L 1203.333 802.667 L 1203.333 881.733 Q 1203.333 889.733 1198.667 891.733 L 1223.6 891.733 Q 1218.933 889.067 1218.933 881.733 L 1218.933 881.733 L 1218.933 838.4 Q 1218.667 835.2 1219.667 832.6 L 1219.667 832.6 Q 1220.667 830 1222.533 828.133 L 1222.533 828.133 Q 1224.4 826.267 1227 825.2 L 1227 825.2 Q 1229.6 824.133 1232.667 824.133 L 1232.667 824.133 L 1232.667 824.133 Z  M 598 803.733 L 598 803.733 Q 598 792.667 579.867 792.667 L 579.867 792.667 L 548.4 792.667 Q 547.867 792.667 546.867 792.533 L 546.867 792.533 Q 545.867 792.4 545.467 792.4 L 545.467 792.4 L 542.533 792.4 Q 535.6 792.4 531.067 796.133 L 531.067 796.133 Q 526 800.133 526 806.8 L 526 806.8 Q 526 812.267 529.733 816.533 L 529.733 816.533 Q 533.6 820.8 538.667 820.8 L 538.667 820.8 Q 544.533 820.8 546.133 818.133 L 546.133 818.133 Q 538.667 816.667 538.667 808 L 538.667 808 Q 538.667 803.6 541.067 800.4 L 541.067 800.4 Q 543.467 797.2 547.733 797.2 L 547.733 797.2 Q 554.133 797.2 554.133 802.667 L 554.133 802.667 L 554.133 881.733 Q 554.133 887.733 549.467 891.733 L 570.267 891.733 Q 578.4 891.733 584 885.867 L 584 885.867 Q 586.667 883.2 588.6 880.6 L 588.6 880.6 Q 590.533 878 592 875.733 L 592 875.733 Q 600.933 861.467 600.933 846.4 L 600.933 846.4 Q 600.933 824 579.6 820.8 L 579.6 820.8 Q 598 813.867 598 803.733 L 598 803.733 Z  M 569.733 884.133 L 569.733 827.067 Q 569.733 824.4 572.267 824.4 L 572.267 824.4 Q 584.533 824.4 584.533 851.067 L 584.533 851.067 Q 584.533 864.267 582.8 871.333 L 582.8 871.333 Q 578.933 887.6 572.933 887.6 L 572.933 887.6 Q 569.733 887.6 569.733 884.133 L 569.733 884.133 L 569.733 884.133 Z  M 569.733 815.867 L 569.733 801.2 Q 569.733 796.8 576.133 796.8 L 576.133 796.8 Q 579.6 796.8 581.8 799 L 581.8 799 Q 584 801.2 584 804.667 L 584 804.667 Q 584 810.8 579.6 814.933 L 579.6 814.933 Q 575.067 819.2 572.133 819.2 L 572.133 819.2 Q 569.733 819.2 569.733 815.867 L 569.733 815.867 L 569.733 815.867 Z  M 608.667 891.733 L 650.8 891.733 L 650.8 861.467 L 650.133 861.467 Q 648.933 869.733 645.333 877.6 L 645.333 877.6 Q 640.267 887.867 634 887.867 L 634 887.867 Q 628.933 887.867 628.933 882 L 628.933 882 L 628.933 829.467 Q 628.933 825.2 633.2 825.2 L 633.2 825.2 Q 637.6 825.2 641.067 833.6 L 641.067 833.6 Q 643.867 840.667 643.867 845.867 L 644.667 845.867 L 644.667 820.667 L 628.933 820.667 L 628.933 802.267 Q 628.933 797.733 633.2 797.733 L 633.2 797.733 Q 642.133 797.733 646.533 805.2 L 646.533 805.2 Q 650.133 811.467 650.133 820.933 L 650.8 820.933 L 650.8 792.667 L 608.667 792.667 Q 613.333 794.267 613.333 802.667 L 613.333 802.667 L 613.333 881.733 Q 613.333 886.4 611.733 888.533 L 611.733 888.533 Q 609.467 891.467 608.667 891.733 L 608.667 891.733 L 608.667 891.733 Z  M 678.933 817.2 L 678.933 802.667 Q 678.933 796.933 684.133 796.933 L 684.133 796.933 Q 691.067 796.933 691.067 805.467 L 691.067 805.467 Q 691.067 810.933 687.6 815.067 L 687.6 815.067 Q 684.133 819.067 680.8 819.067 L 680.8 819.067 Q 678.933 819.067 678.933 817.2 L 678.933 817.2 Z  M 694.8 792.667 L 658.667 792.667 Q 663.333 794.267 663.333 802.667 L 663.333 802.667 L 663.333 881.733 Q 663.333 889.733 658.667 891.733 L 683.6 891.733 Q 678.933 889.067 678.933 881.733 L 678.933 881.733 L 678.933 826.133 Q 684.667 826.8 686 833.333 L 686 833.333 Q 686.933 837.2 688.2 844.467 L 688.2 844.467 Q 689.467 851.733 691.333 862.533 L 691.333 862.533 Q 694.533 881.2 697.333 891.733 L 718.4 891.733 Q 712.667 888 710.8 881.867 L 710.8 881.867 Q 708.133 870.267 706.2 861.733 L 706.2 861.733 Q 704.267 853.2 703.2 847.2 L 703.2 847.2 Q 701.733 839.6 701 833.267 L 701 833.267 Q 700.267 826.933 700.267 821.867 L 700.267 821.867 Q 693.733 823.333 689.333 823.333 L 689.333 823.333 Q 688.133 823.333 686.733 823.2 L 686.733 823.2 Q 685.333 823.067 683.733 822.8 L 683.733 822.8 Q 693.6 820.933 699.733 816.933 L 699.733 816.933 Q 708.133 811.6 708.133 803.333 L 708.133 803.333 Q 708.133 798 704 795.2 L 704 795.2 Q 700.533 792.667 694.8 792.667 L 694.8 792.667 L 694.8 792.667 Z  M 746.533 881.733 L 746.533 825.2 Q 746.533 824.667 746.8 824.667 L 746.8 824.667 Q 748.4 824.667 750.267 828.267 L 750.267 828.267 Q 751.733 831.467 752.133 833.467 L 752.133 833.467 Q 753.733 841.6 754.933 847.6 L 754.933 847.6 Q 756.133 853.6 756.933 857.733 L 756.933 857.733 L 760.267 875.733 Q 761.6 881.067 762.667 885.067 L 762.667 885.067 Q 763.733 889.067 764.533 891.733 L 786 891.733 Q 784.133 889.867 782.733 888.2 L 782.733 888.2 Q 781.333 886.533 780.4 885.067 L 780.4 885.067 Q 778.667 882.133 776.8 874.933 L 776.8 874.933 Q 776.267 872.933 775.6 870.2 L 775.6 870.2 Q 774.933 867.467 774.267 864 L 774.267 864 L 769.467 840.533 Q 767.067 828.267 764.533 825.067 L 764.533 825.067 Q 761.733 821.067 756.667 820.267 L 756.667 820.267 Q 755.733 820.133 755.067 820.133 L 755.067 820.133 Q 754.533 820.133 754 820.133 L 754 820.133 Q 753.6 820 753.2 819.333 L 753.2 819.333 Q 753.333 818.933 753.733 818.533 L 753.733 818.533 Q 759.067 812.133 762.2 808.533 L 762.2 808.533 Q 765.333 804.933 766.267 803.867 L 766.267 803.867 Q 772.8 797.333 781.733 792.667 L 781.733 792.667 L 760.4 792.667 Q 762.533 794 762.533 797.2 L 762.533 797.2 Q 762.533 800.667 758.667 805.333 L 758.667 805.333 L 749.067 817.067 Q 748.8 817.467 747.6 818.133 L 747.6 818.133 Q 746.533 818.133 746.533 816 L 746.533 816 L 746.533 802.667 Q 746.533 795.067 751.2 792.667 L 751.2 792.667 L 726.267 792.667 Q 730.933 794.267 730.933 802.667 L 730.933 802.667 L 730.933 881.733 Q 730.933 889.733 726.267 891.733 L 751.2 891.733 Q 746.533 889.067 746.533 881.733 L 746.533 881.733 L 746.533 881.733 Z  M 793.867 891.733 L 836 891.733 L 836 861.467 L 835.333 861.467 Q 834.133 869.733 830.533 877.6 L 830.533 877.6 Q 825.467 887.867 819.2 887.867 L 819.2 887.867 Q 814.133 887.867 814.133 882 L 814.133 882 L 814.133 829.467 Q 814.133 825.2 818.4 825.2 L 818.4 825.2 Q 822.8 825.2 826.267 833.6 L 826.267 833.6 Q 829.067 840.667 829.067 845.867 L 829.867 845.867 L 829.867 820.667 L 814.133 820.667 L 814.133 802.267 Q 814.133 797.733 818.4 797.733 L 818.4 797.733 Q 827.333 797.733 831.733 805.2 L 831.733 805.2 Q 835.333 811.467 835.333 820.933 L 836 820.933 L 836 792.667 L 793.867 792.667 Q 798.533 794.267 798.533 802.667 L 798.533 802.667 L 798.533 881.733 Q 798.533 886.4 796.933 888.533 L 796.933 888.533 Q 794.667 891.467 793.867 891.733 L 793.867 891.733 L 793.867 891.733 Z  M 884.133 891.733 L 884.133 861.467 L 883.333 861.467 Q 882.267 869.733 878.533 877.467 L 878.533 877.467 Q 873.467 887.867 867.2 887.867 L 867.2 887.867 Q 864.133 887.867 864.133 882 L 864.133 882 L 864.133 802.667 Q 864.133 795.067 868.8 792.667 L 868.8 792.667 L 843.867 792.667 Q 848.533 794.267 848.533 802.667 L 848.533 802.667 L 848.533 881.733 Q 848.533 889.733 843.867 891.733 L 884.133 891.733 L 884.133 891.733 Z  M 891.867 891.733 L 934 891.733 L 934 861.467 L 933.333 861.467 Q 932.133 869.733 928.533 877.6 L 928.533 877.6 Q 923.467 887.867 917.2 887.867 L 917.2 887.867 Q 912.133 887.867 912.133 882 L 912.133 882 L 912.133 829.467 Q 912.133 825.2 916.4 825.2 L 916.4 825.2 Q 920.8 825.2 924.267 833.6 L 924.267 833.6 Q 927.067 840.667 927.067 845.867 L 927.867 845.867 L 927.867 820.667 L 912.133 820.667 L 912.133 802.267 Q 912.133 797.733 916.4 797.733 L 916.4 797.733 Q 925.333 797.733 929.733 805.2 L 929.733 805.2 Q 933.333 811.467 933.333 820.933 L 934 820.933 L 934 792.667 L 891.867 792.667 Q 896.533 794.267 896.533 802.667 L 896.533 802.667 L 896.533 881.733 Q 896.533 886.4 894.933 888.533 L 894.933 888.533 Q 892.667 891.467 891.867 891.733 L 891.867 891.733 L 891.867 891.733 Z  M 969.067 792.667 L 941.867 792.667 Q 946.133 794.667 948.133 799.333 L 948.133 799.333 L 958.267 823.067 L 958.267 881.733 Q 958.267 889.733 953.6 891.733 L 978.533 891.733 Q 973.867 889.067 973.867 881.733 L 973.867 881.733 L 973.867 823.067 L 982.667 803.067 Q 985.867 795.6 992.8 792.667 L 992.8 792.667 L 976.4 792.667 Q 979.2 794.533 979.2 798 L 979.2 798 Q 979.2 801.867 978.4 803.6 L 978.4 803.6 L 972.667 816.533 L 967.2 803.6 Q 965.867 800.533 965.867 798 L 965.867 798 Q 965.867 794.267 969.067 792.667 L 969.067 792.667 L 969.067 792.667 Z " fill="rgb(0,0,0)"/><rect x="1202.2" y="770.533" width="27.467" height="20.267" transform="matrix(1,0,0,1,0,0)" fill="none"/></g></svg>