<svg xmlns="http://www.w3.org/2000/svg" style="isolation:isolate" viewBox="526 285.733 1088.267 141.467">
  <path d="M1310 427.2q9.467 0 19.2-7.467 9.6-7.333 9.6-22.8v-79.066q0-7.6 4.667-10h-24.934q4.667 1.6 4.667 10v79.066q0 8.667-3.067 16.667-3.6 9.067-10.133 13.6zm45.2-37.467l8.667-49.333q8.266 0 11.733 18.667l5.733 32.533q.4 2.267.4 5.2 0 6.933-4 10.133h28.134q-6.267-2.8-8.534-15.066l-14.4-84H1358q5.333 3.733 5.333 11.733 0 2.4-.133 2.933L1350.933 392q-.266 1.067-.533 1.933-.267.867-.533 1.534-3.2 8.533-8.8 11.466h21.333q-4.267-2.266-5.867-5.133-1.6-2.867-1.6-7.933 0-1.334.067-2.4.067-1.067.2-1.734zm16.267-54.133h-6.667l1.2-6.933q.667-4 1.267-7 .6-3 .866-5 1.334 7.066 2.2 11.733.867 4.667 1.134 7.2zm73.866 11.2V306q-4.8 3.467-5.6 3.2-8.4-2.133-10.666-2.133-10.534 0-18.267 11.333-7.867 11.467-7.867 33.2 0 16.667 7.6 36.667t20.534 20q7.2 0 11.066-7.6 5.334-10.8 5.334-25.734 0-4.266-2-4.266-3.067 0-3.067 2.8 0 14.4-2.933 23.733-2.134 6.933-7.2 6.933-4.4 0-6.8-7.466-1.067-3.467-1.8-6.334-.734-2.866-1.267-5.133-1.2-14.133-1.2-22.133-.4-8.534-.4-12.667 0-9.867.4-17.333.4-7.467 1.333-12.667 1.467-9.067 8-9.067 3.734 0 5.2 3.067 1.734 4 2.134 8.667v4.666q0 2.267.133 4.534.133 3.866 2 8.133 2.267 4.8 5.333 6.4zm30.134 50.133V340.4q0-.533.266-.533 1.6 0 3.467 3.6 1.467 3.2 1.867 5.2 1.6 8.133 2.8 14.133 1.2 6 2 10.133l3.333 18q1.333 5.334 2.4 9.334t1.867 6.666h21.466q-1.866-1.866-3.266-3.533-1.4-1.667-2.334-3.133-1.733-2.934-3.6-10.134-.533-2-1.2-4.733-.666-2.733-1.333-6.2l-4.8-23.467q-2.4-12.266-4.933-15.466-2.8-4-7.867-4.8-.933-.134-1.6-.134h-1.067q-.4-.133-.8-.8.134-.4.534-.8 5.333-6.4 8.466-10 3.134-3.6 4.067-4.666 6.533-6.534 15.467-11.2h-21.334q2.134 1.333 2.134 4.533 0 3.467-3.867 8.133l-9.6 11.734q-.267.4-1.467 1.066-1.066 0-1.066-2.133v-13.333q0-7.6 4.666-10H1455.2q4.667 1.6 4.667 10v79.066q0 8-4.667 10h24.933q-4.666-2.666-4.666-10zm47.333 10h42.133v-30.266h-.666q-1.2 8.266-4.8 16.133-5.067 10.267-11.334 10.267-5.066 0-5.066-5.867v-52.533q0-4.267 4.266-4.267 4.4 0 7.867 8.4 2.8 7.067 2.8 12.267h.8v-25.2h-15.733v-18.4q0-4.534 4.266-4.534 8.934 0 13.334 7.467 3.6 6.267 3.6 15.733h.666v-28.266H1522.8q4.667 1.6 4.667 10v79.066q0 4.667-1.6 6.8-2.267 2.934-3.067 3.2zm91.467-99.066h-44.134v27.6h.8q2-10.267 5.334-16.934 3.333-6.4 6.133-6.4 2 0 2 1.6v83.2q0 8-4.667 10h24.934q-4.667-2.666-4.667-10v-83.2q0-1.6 2-1.6 2.8 0 6 5.6 4 7.067 5.6 17.734h.667v-27.6zm-530.4 31.466v57.6q0 8-4.667 10h24.933q-4.666-2.666-4.666-10v-79.066q0-7.6 4.666-10H1079.2q4.667 1.6 4.667 10V335.6h-13.734v-17.733q0-7.6 4.667-10h-24.933q4.666 1.6 4.666 10v79.066q0 8-4.666 10h24.933q-4.667-2.666-4.667-10V353.6q-.266-3.2.734-5.8 1-2.6 2.866-4.467 1.867-1.866 4.467-2.933 2.6-1.067 5.667-1.067zm48.266 57.6v-79.066q0-7.6 4.667-10h-24.933q4.666 1.6 4.666 10v79.066q0 8-4.666 10h24.933q-4.667-2.666-4.667-10zm58.267 11.6v-62q0-7.6 4.667-10h-24.934q4.667 1.867 4.667 10v51.734q0 5.333-3.067 5.333-4.8 0-6.533-10.533-2.8-16.134-2.8-42.667 0-16.533 2.533-30.8 1.467-8.267 7.2-8.267 5.734 0 8 7.467.267 1.867.534 3.133.266 1.267.4 2.2 1.2 5.867 6.933 9.067V306q-1.2 1.067-2.4 2.2-1.2 1.133-3.2 1.133-1.067 0-3.467-.933-2.666-1.067-3.333-1.2-.667-.133-1.867-.133h-3.066q-5.467 0-11.734 5.066-14.4 11.867-14.4 39.467 0 13.333 3.734 25.733 4.266 14.4 11.866 22.8 6.534 7.6 12.534 7.6 2 0 5.733-1.466 4-1.467 5.867-1.467 3.333 0 6.133 3.733zm42.267-69.2v57.6q0 8-4.667 10h24.933q-4.666-2.666-4.666-10v-79.066q0-7.6 4.666-10H1228q4.667 1.6 4.667 10V335.6h-13.734v-17.733q0-7.6 4.667-10h-24.933q4.666 1.6 4.666 10v79.066q0 8-4.666 10h24.933q-4.667-2.666-4.667-10V353.6q-.266-3.2.734-5.8 1-2.6 2.866-4.467 1.867-1.866 4.467-2.933 2.6-1.067 5.667-1.067zM598 318.933q0-11.066-18.133-11.066H548.4q-.533 0-1.533-.134-1-.133-1.4-.133h-2.934q-6.933 0-11.466 3.733Q526 315.333 526 322q0 5.467 3.733 9.733Q533.6 336 538.667 336q5.866 0 7.466-2.667-7.466-1.466-7.466-10.133 0-4.4 2.4-7.6 2.4-3.2 6.666-3.2 6.4 0 6.4 5.467v79.066q0 6-4.666 10h20.8q8.133 0 13.733-5.866 2.667-2.667 4.6-5.267 1.933-2.6 3.4-4.867 8.933-14.266 8.933-29.333 0-22.4-21.333-25.6 18.4-6.933 18.4-17.067zm-28.267 80.4v-57.066q0-2.667 2.534-2.667 12.266 0 12.266 26.667 0 13.2-1.733 20.266-3.867 16.267-9.867 16.267-3.2 0-3.2-3.467zm0-68.266V316.4q0-4.4 6.4-4.4 3.467 0 5.667 2.2 2.2 2.2 2.2 5.667 0 6.133-4.4 10.266-4.533 4.267-7.467 4.267-2.4 0-2.4-3.333zm38.934 75.866H650.8v-30.266h-.667q-1.2 8.266-4.8 16.133-5.066 10.267-11.333 10.267-5.067 0-5.067-5.867v-52.533q0-4.267 4.267-4.267 4.4 0 7.867 8.4 2.8 7.067 2.8 12.267h.8v-25.2h-15.734v-18.4q0-4.534 4.267-4.534 8.933 0 13.333 7.467 3.6 6.267 3.6 15.733h.667v-28.266h-42.133q4.666 1.6 4.666 10v79.066q0 4.667-1.6 6.8-2.266 2.934-3.066 3.2zm70.266-74.533v-14.533q0-5.734 5.2-5.734 6.934 0 6.934 8.534 0 5.466-3.467 9.6-3.467 4-6.8 4-1.867 0-1.867-1.867zm15.867-24.533h-36.133q4.666 1.6 4.666 10v79.066q0 8-4.666 10H683.6q-4.667-2.666-4.667-10v-55.6q5.734.667 7.067 7.2.933 3.867 2.2 11.134 1.267 7.266 3.133 18.066 3.2 18.667 6 29.2H718.4q-5.733-3.733-7.6-9.866-2.667-11.6-4.6-20.134-1.933-8.533-3-14.533-1.467-7.6-2.2-13.933-.733-6.334-.733-11.4-6.534 1.466-10.934 1.466-1.2 0-2.6-.133-1.4-.133-3-.4 9.867-1.867 16-5.867 8.4-5.333 8.4-13.6 0-5.333-4.133-8.133-3.467-2.533-9.2-2.533zm51.733 89.066V340.4q0-.533.267-.533 1.6 0 3.467 3.6 1.466 3.2 1.866 5.2 1.6 8.133 2.8 14.133 1.2 6 2 10.133l3.334 18q1.333 5.334 2.4 9.334 1.066 4 1.866 6.666H786q-1.867-1.866-3.267-3.533-1.4-1.667-2.333-3.133-1.733-2.934-3.6-10.134-.533-2-1.2-4.733-.667-2.733-1.333-6.2l-4.8-23.467q-2.4-12.266-4.934-15.466-2.8-4-7.866-4.8-.934-.134-1.6-.134H754q-.4-.133-.8-.8.133-.4.533-.8 5.334-6.4 8.467-10 3.133-3.6 4.067-4.666 6.533-6.534 15.466-11.2H760.4q2.133 1.333 2.133 4.533 0 3.467-3.866 8.133l-9.6 11.734q-.267.4-1.467 1.066-1.067 0-1.067-2.133v-13.333q0-7.6 4.667-10h-24.933q4.666 1.6 4.666 10v79.066q0 8-4.666 10H751.2q-4.667-2.666-4.667-10zm47.334 10H836v-30.266h-.667q-1.2 8.266-4.8 16.133-5.066 10.267-11.333 10.267-5.067 0-5.067-5.867v-52.533q0-4.267 4.267-4.267 4.4 0 7.867 8.4 2.8 7.067 2.8 12.267h.8v-25.2h-15.734v-18.4q0-4.534 4.267-4.534 8.933 0 13.333 7.467 3.6 6.267 3.6 15.733H836v-28.266h-42.133q4.666 1.6 4.666 10v79.066q0 4.667-1.6 6.8-2.266 2.934-3.066 3.2zm90.266 0v-30.266h-.8q-1.066 8.266-4.8 16-5.066 10.4-11.333 10.4-3.067 0-3.067-5.867v-79.333q0-7.6 4.667-10h-24.933q4.666 1.6 4.666 10v79.066q0 8-4.666 10h40.266zm7.734 0H934v-30.266h-.667q-1.2 8.266-4.8 16.133-5.066 10.267-11.333 10.267-5.067 0-5.067-5.867v-52.533q0-4.267 4.267-4.267 4.4 0 7.867 8.4 2.8 7.067 2.8 12.267h.8v-25.2h-15.734v-18.4q0-4.534 4.267-4.534 8.933 0 13.333 7.467 3.6 6.267 3.6 15.733H934v-28.266h-42.133q4.666 1.6 4.666 10v79.066q0 4.667-1.6 6.8-2.266 2.934-3.066 3.2zm77.2-99.066h-27.2q4.266 2 6.266 6.666l10.134 23.734v58.666q0 8-4.667 10h24.933q-4.666-2.666-4.666-10v-58.666l8.8-20q3.2-7.467 10.133-10.4h-16.4q2.8 1.866 2.8 5.333 0 3.867-.8 5.6l-5.733 12.933L967.2 318.8q-1.333-3.067-1.333-5.6 0-3.733 3.2-5.333z" fill="#FFF"/>
  <path fill="none" d="M1202.2 285.733h27.467V306H1202.2z"/>
</svg>
