<?xml version="1.0" encoding="UTF-8" standalone="no"?><!-- Generator: Gravit.io --><svg xmlns="http://www.w3.org/2000/svg" xmlns:xlink="http://www.w3.org/1999/xlink" style="isolation:isolate" viewBox="526 285.733 1088.267 141.467" width="1088.267pt" height="141.467pt"><g><path d=" M 1310 427.2 L 1310 427.2 Q 1319.467 427.2 1329.2 419.733 L 1329.2 419.733 Q 1338.8 412.4 1338.8 396.933 L 1338.8 396.933 L 1338.8 317.867 Q 1338.8 310.267 1343.467 307.867 L 1343.467 307.867 L 1318.533 307.867 Q 1323.2 309.467 1323.2 317.867 L 1323.2 317.867 L 1323.2 396.933 Q 1323.2 405.6 1320.133 413.6 L 1320.133 413.6 Q 1316.533 422.667 1310 427.2 L 1310 427.2 Z  M 1355.2 389.733 L 1363.867 340.4 Q 1372.133 340.4 1375.6 359.067 L 1375.6 359.067 L 1381.333 391.6 Q 1381.733 393.867 1381.733 396.8 L 1381.733 396.8 Q 1381.733 403.733 1377.733 406.933 L 1405.867 406.933 Q 1399.6 404.133 1397.333 391.867 L 1397.333 391.867 L 1382.933 307.867 L 1358 307.867 Q 1363.333 311.6 1363.333 319.6 L 1363.333 319.6 Q 1363.333 322 1363.2 322.533 L 1363.2 322.533 L 1350.933 392 Q 1350.667 393.067 1350.4 393.933 L 1350.4 393.933 Q 1350.133 394.8 1349.867 395.467 L 1349.867 395.467 Q 1346.667 404 1341.067 406.933 L 1362.4 406.933 Q 1358.133 404.667 1356.533 401.8 L 1356.533 401.8 Q 1354.933 398.933 1354.933 393.867 L 1354.933 393.867 Q 1354.933 392.533 1355 391.467 L 1355 391.467 Q 1355.067 390.4 1355.2 389.733 L 1355.2 389.733 L 1355.2 389.733 Z  M 1371.467 335.6 L 1364.8 335.6 L 1366 328.667 Q 1366.667 324.667 1367.267 321.667 L 1367.267 321.667 Q 1367.867 318.667 1368.133 316.667 L 1368.133 316.667 Q 1369.467 323.733 1370.333 328.4 L 1370.333 328.4 Q 1371.2 333.067 1371.467 335.6 L 1371.467 335.6 L 1371.467 335.6 Z  M 1445.333 346.8 L 1445.333 306 Q 1440.533 309.467 1439.733 309.2 L 1439.733 309.2 Q 1431.333 307.067 1429.067 307.067 L 1429.067 307.067 Q 1418.533 307.067 1410.8 318.4 L 1410.8 318.4 Q 1402.933 329.867 1402.933 351.6 L 1402.933 351.6 Q 1402.933 368.267 1410.533 388.267 L 1410.533 388.267 Q 1418.133 408.267 1431.067 408.267 L 1431.067 408.267 Q 1438.267 408.267 1442.133 400.667 L 1442.133 400.667 Q 1447.467 389.867 1447.467 374.933 L 1447.467 374.933 Q 1447.467 370.667 1445.467 370.667 L 1445.467 370.667 Q 1442.4 370.667 1442.4 373.467 L 1442.4 373.467 Q 1442.4 387.867 1439.467 397.2 L 1439.467 397.2 Q 1437.333 404.133 1432.267 404.133 L 1432.267 404.133 Q 1427.867 404.133 1425.467 396.667 L 1425.467 396.667 Q 1424.4 393.2 1423.667 390.333 L 1423.667 390.333 Q 1422.933 387.467 1422.4 385.2 L 1422.4 385.2 Q 1421.2 371.067 1421.2 363.067 L 1421.2 363.067 Q 1420.8 354.533 1420.8 350.4 L 1420.8 350.4 Q 1420.8 340.533 1421.2 333.067 L 1421.2 333.067 Q 1421.6 325.6 1422.533 320.4 L 1422.533 320.4 Q 1424 311.333 1430.533 311.333 L 1430.533 311.333 Q 1434.267 311.333 1435.733 314.4 L 1435.733 314.4 Q 1437.467 318.4 1437.867 323.067 L 1437.867 323.067 Q 1437.867 325.333 1437.867 327.733 L 1437.867 327.733 Q 1437.867 330 1438 332.267 L 1438 332.267 Q 1438.133 336.133 1440 340.4 L 1440 340.4 Q 1442.267 345.2 1445.333 346.8 L 1445.333 346.8 L 1445.333 346.8 Z  M 1475.467 396.933 L 1475.467 340.4 Q 1475.467 339.867 1475.733 339.867 L 1475.733 339.867 Q 1477.333 339.867 1479.2 343.467 L 1479.2 343.467 Q 1480.667 346.667 1481.067 348.667 L 1481.067 348.667 Q 1482.667 356.8 1483.867 362.8 L 1483.867 362.8 Q 1485.067 368.8 1485.867 372.933 L 1485.867 372.933 L 1489.2 390.933 Q 1490.533 396.267 1491.6 400.267 L 1491.6 400.267 Q 1492.667 404.267 1493.467 406.933 L 1514.933 406.933 Q 1513.067 405.067 1511.667 403.4 L 1511.667 403.4 Q 1510.267 401.733 1509.333 400.267 L 1509.333 400.267 Q 1507.6 397.333 1505.733 390.133 L 1505.733 390.133 Q 1505.2 388.133 1504.533 385.4 L 1504.533 385.4 Q 1503.867 382.667 1503.2 379.2 L 1503.2 379.2 L 1498.4 355.733 Q 1496 343.467 1493.467 340.267 L 1493.467 340.267 Q 1490.667 336.267 1485.6 335.467 L 1485.6 335.467 Q 1484.667 335.333 1484 335.333 L 1484 335.333 Q 1483.467 335.333 1482.933 335.333 L 1482.933 335.333 Q 1482.533 335.2 1482.133 334.533 L 1482.133 334.533 Q 1482.267 334.133 1482.667 333.733 L 1482.667 333.733 Q 1488 327.333 1491.133 323.733 L 1491.133 323.733 Q 1494.267 320.133 1495.2 319.067 L 1495.2 319.067 Q 1501.733 312.533 1510.667 307.867 L 1510.667 307.867 L 1489.333 307.867 Q 1491.467 309.2 1491.467 312.4 L 1491.467 312.4 Q 1491.467 315.867 1487.6 320.533 L 1487.6 320.533 L 1478 332.267 Q 1477.733 332.667 1476.533 333.333 L 1476.533 333.333 Q 1475.467 333.333 1475.467 331.2 L 1475.467 331.2 L 1475.467 317.867 Q 1475.467 310.267 1480.133 307.867 L 1480.133 307.867 L 1455.2 307.867 Q 1459.867 309.467 1459.867 317.867 L 1459.867 317.867 L 1459.867 396.933 Q 1459.867 404.933 1455.2 406.933 L 1480.133 406.933 Q 1475.467 404.267 1475.467 396.933 L 1475.467 396.933 L 1475.467 396.933 Z  M 1522.8 406.933 L 1564.933 406.933 L 1564.933 376.667 L 1564.267 376.667 Q 1563.067 384.933 1559.467 392.8 L 1559.467 392.8 Q 1554.4 403.067 1548.133 403.067 L 1548.133 403.067 Q 1543.067 403.067 1543.067 397.2 L 1543.067 397.2 L 1543.067 344.667 Q 1543.067 340.4 1547.333 340.4 L 1547.333 340.4 Q 1551.733 340.4 1555.2 348.8 L 1555.2 348.8 Q 1558 355.867 1558 361.067 L 1558.8 361.067 L 1558.8 335.867 L 1543.067 335.867 L 1543.067 317.467 Q 1543.067 312.933 1547.333 312.933 L 1547.333 312.933 Q 1556.267 312.933 1560.667 320.4 L 1560.667 320.4 Q 1564.267 326.667 1564.267 336.133 L 1564.933 336.133 L 1564.933 307.867 L 1522.8 307.867 Q 1527.467 309.467 1527.467 317.867 L 1527.467 317.867 L 1527.467 396.933 Q 1527.467 401.6 1525.867 403.733 L 1525.867 403.733 Q 1523.6 406.667 1522.8 406.933 L 1522.8 406.933 L 1522.8 406.933 Z  M 1614.267 307.867 L 1570.133 307.867 L 1570.133 335.467 L 1570.933 335.467 Q 1572.933 325.2 1576.267 318.533 L 1576.267 318.533 Q 1579.6 312.133 1582.4 312.133 L 1582.4 312.133 Q 1584.4 312.133 1584.4 313.733 L 1584.4 313.733 L 1584.4 396.933 Q 1584.4 404.933 1579.733 406.933 L 1604.667 406.933 Q 1600 404.267 1600 396.933 L 1600 396.933 L 1600 313.733 Q 1600 312.133 1602 312.133 L 1602 312.133 Q 1604.8 312.133 1608 317.733 L 1608 317.733 Q 1612 324.8 1613.6 335.467 L 1614.267 335.467 L 1614.267 307.867 L 1614.267 307.867 Z  M 1083.867 339.333 L 1083.867 396.933 Q 1083.867 404.933 1079.2 406.933 L 1104.133 406.933 Q 1099.467 404.267 1099.467 396.933 L 1099.467 396.933 L 1099.467 317.867 Q 1099.467 310.267 1104.133 307.867 L 1104.133 307.867 L 1079.2 307.867 Q 1083.867 309.467 1083.867 317.867 L 1083.867 317.867 L 1083.867 335.6 L 1070.133 335.6 L 1070.133 317.867 Q 1070.133 310.267 1074.8 307.867 L 1074.8 307.867 L 1049.867 307.867 Q 1054.533 309.467 1054.533 317.867 L 1054.533 317.867 L 1054.533 396.933 Q 1054.533 404.933 1049.867 406.933 L 1074.8 406.933 Q 1070.133 404.267 1070.133 396.933 L 1070.133 396.933 L 1070.133 353.6 Q 1069.867 350.4 1070.867 347.8 L 1070.867 347.8 Q 1071.867 345.2 1073.733 343.333 L 1073.733 343.333 Q 1075.6 341.467 1078.2 340.4 L 1078.2 340.4 Q 1080.8 339.333 1083.867 339.333 L 1083.867 339.333 L 1083.867 339.333 Z  M 1132.133 396.933 L 1132.133 317.867 Q 1132.133 310.267 1136.8 307.867 L 1136.8 307.867 L 1111.867 307.867 Q 1116.533 309.467 1116.533 317.867 L 1116.533 317.867 L 1116.533 396.933 Q 1116.533 404.933 1111.867 406.933 L 1136.8 406.933 Q 1132.133 404.267 1132.133 396.933 L 1132.133 396.933 Z  M 1190.4 408.533 L 1190.4 408.533 L 1190.4 346.533 Q 1190.4 338.933 1195.067 336.533 L 1195.067 336.533 L 1170.133 336.533 Q 1174.8 338.4 1174.8 346.533 L 1174.8 346.533 L 1174.8 398.267 Q 1174.8 403.6 1171.733 403.6 L 1171.733 403.6 Q 1166.933 403.6 1165.2 393.067 L 1165.2 393.067 Q 1162.4 376.933 1162.4 350.4 L 1162.4 350.4 Q 1162.4 333.867 1164.933 319.6 L 1164.933 319.6 Q 1166.4 311.333 1172.133 311.333 L 1172.133 311.333 Q 1177.867 311.333 1180.133 318.8 L 1180.133 318.8 Q 1180.4 320.667 1180.667 321.933 L 1180.667 321.933 Q 1180.933 323.2 1181.067 324.133 L 1181.067 324.133 Q 1182.267 330 1188 333.2 L 1188 333.2 L 1188 306 Q 1186.8 307.067 1185.6 308.2 L 1185.6 308.2 Q 1184.4 309.333 1182.4 309.333 L 1182.4 309.333 Q 1181.333 309.333 1178.933 308.4 L 1178.933 308.4 Q 1176.267 307.333 1175.6 307.2 L 1175.6 307.2 Q 1174.933 307.067 1173.733 307.067 L 1173.733 307.067 Q 1172.533 307.067 1170.667 307.067 L 1170.667 307.067 Q 1165.2 307.067 1158.933 312.133 L 1158.933 312.133 Q 1144.533 324 1144.533 351.6 L 1144.533 351.6 Q 1144.533 364.933 1148.267 377.333 L 1148.267 377.333 Q 1152.533 391.733 1160.133 400.133 L 1160.133 400.133 Q 1166.667 407.733 1172.667 407.733 L 1172.667 407.733 Q 1174.667 407.733 1178.4 406.267 L 1178.4 406.267 Q 1182.4 404.8 1184.267 404.8 L 1184.267 404.8 Q 1187.6 404.8 1190.4 408.533 L 1190.4 408.533 Z  M 1232.667 339.333 L 1232.667 396.933 Q 1232.667 404.933 1228 406.933 L 1252.933 406.933 Q 1248.267 404.267 1248.267 396.933 L 1248.267 396.933 L 1248.267 317.867 Q 1248.267 310.267 1252.933 307.867 L 1252.933 307.867 L 1228 307.867 Q 1232.667 309.467 1232.667 317.867 L 1232.667 317.867 L 1232.667 335.6 L 1218.933 335.6 L 1218.933 317.867 Q 1218.933 310.267 1223.6 307.867 L 1223.6 307.867 L 1198.667 307.867 Q 1203.333 309.467 1203.333 317.867 L 1203.333 317.867 L 1203.333 396.933 Q 1203.333 404.933 1198.667 406.933 L 1223.6 406.933 Q 1218.933 404.267 1218.933 396.933 L 1218.933 396.933 L 1218.933 353.6 Q 1218.667 350.4 1219.667 347.8 L 1219.667 347.8 Q 1220.667 345.2 1222.533 343.333 L 1222.533 343.333 Q 1224.4 341.467 1227 340.4 L 1227 340.4 Q 1229.6 339.333 1232.667 339.333 L 1232.667 339.333 L 1232.667 339.333 Z  M 598 318.933 L 598 318.933 Q 598 307.867 579.867 307.867 L 579.867 307.867 L 548.4 307.867 Q 547.867 307.867 546.867 307.733 L 546.867 307.733 Q 545.867 307.6 545.467 307.6 L 545.467 307.6 L 542.533 307.6 Q 535.6 307.6 531.067 311.333 L 531.067 311.333 Q 526 315.333 526 322 L 526 322 Q 526 327.467 529.733 331.733 L 529.733 331.733 Q 533.6 336 538.667 336 L 538.667 336 Q 544.533 336 546.133 333.333 L 546.133 333.333 Q 538.667 331.867 538.667 323.2 L 538.667 323.2 Q 538.667 318.8 541.067 315.6 L 541.067 315.6 Q 543.467 312.4 547.733 312.4 L 547.733 312.4 Q 554.133 312.4 554.133 317.867 L 554.133 317.867 L 554.133 396.933 Q 554.133 402.933 549.467 406.933 L 570.267 406.933 Q 578.4 406.933 584 401.067 L 584 401.067 Q 586.667 398.4 588.6 395.8 L 588.6 395.8 Q 590.533 393.2 592 390.933 L 592 390.933 Q 600.933 376.667 600.933 361.6 L 600.933 361.6 Q 600.933 339.2 579.6 336 L 579.6 336 Q 598 329.067 598 318.933 L 598 318.933 Z  M 569.733 399.333 L 569.733 342.267 Q 569.733 339.6 572.267 339.6 L 572.267 339.6 Q 584.533 339.6 584.533 366.267 L 584.533 366.267 Q 584.533 379.467 582.8 386.533 L 582.8 386.533 Q 578.933 402.8 572.933 402.8 L 572.933 402.8 Q 569.733 402.8 569.733 399.333 L 569.733 399.333 L 569.733 399.333 Z  M 569.733 331.067 L 569.733 316.4 Q 569.733 312 576.133 312 L 576.133 312 Q 579.6 312 581.8 314.2 L 581.8 314.2 Q 584 316.4 584 319.867 L 584 319.867 Q 584 326 579.6 330.133 L 579.6 330.133 Q 575.067 334.4 572.133 334.4 L 572.133 334.4 Q 569.733 334.4 569.733 331.067 L 569.733 331.067 L 569.733 331.067 Z  M 608.667 406.933 L 650.8 406.933 L 650.8 376.667 L 650.133 376.667 Q 648.933 384.933 645.333 392.8 L 645.333 392.8 Q 640.267 403.067 634 403.067 L 634 403.067 Q 628.933 403.067 628.933 397.2 L 628.933 397.2 L 628.933 344.667 Q 628.933 340.4 633.2 340.4 L 633.2 340.4 Q 637.6 340.4 641.067 348.8 L 641.067 348.8 Q 643.867 355.867 643.867 361.067 L 644.667 361.067 L 644.667 335.867 L 628.933 335.867 L 628.933 317.467 Q 628.933 312.933 633.2 312.933 L 633.2 312.933 Q 642.133 312.933 646.533 320.4 L 646.533 320.4 Q 650.133 326.667 650.133 336.133 L 650.8 336.133 L 650.8 307.867 L 608.667 307.867 Q 613.333 309.467 613.333 317.867 L 613.333 317.867 L 613.333 396.933 Q 613.333 401.6 611.733 403.733 L 611.733 403.733 Q 609.467 406.667 608.667 406.933 L 608.667 406.933 L 608.667 406.933 Z  M 678.933 332.4 L 678.933 317.867 Q 678.933 312.133 684.133 312.133 L 684.133 312.133 Q 691.067 312.133 691.067 320.667 L 691.067 320.667 Q 691.067 326.133 687.6 330.267 L 687.6 330.267 Q 684.133 334.267 680.8 334.267 L 680.8 334.267 Q 678.933 334.267 678.933 332.4 L 678.933 332.4 Z  M 694.8 307.867 L 658.667 307.867 Q 663.333 309.467 663.333 317.867 L 663.333 317.867 L 663.333 396.933 Q 663.333 404.933 658.667 406.933 L 683.6 406.933 Q 678.933 404.267 678.933 396.933 L 678.933 396.933 L 678.933 341.333 Q 684.667 342 686 348.533 L 686 348.533 Q 686.933 352.4 688.2 359.667 L 688.2 359.667 Q 689.467 366.933 691.333 377.733 L 691.333 377.733 Q 694.533 396.4 697.333 406.933 L 718.4 406.933 Q 712.667 403.2 710.8 397.067 L 710.8 397.067 Q 708.133 385.467 706.2 376.933 L 706.2 376.933 Q 704.267 368.4 703.2 362.4 L 703.2 362.4 Q 701.733 354.8 701 348.467 L 701 348.467 Q 700.267 342.133 700.267 337.067 L 700.267 337.067 Q 693.733 338.533 689.333 338.533 L 689.333 338.533 Q 688.133 338.533 686.733 338.4 L 686.733 338.4 Q 685.333 338.267 683.733 338 L 683.733 338 Q 693.6 336.133 699.733 332.133 L 699.733 332.133 Q 708.133 326.8 708.133 318.533 L 708.133 318.533 Q 708.133 313.2 704 310.4 L 704 310.4 Q 700.533 307.867 694.8 307.867 L 694.8 307.867 L 694.8 307.867 Z  M 746.533 396.933 L 746.533 340.4 Q 746.533 339.867 746.8 339.867 L 746.8 339.867 Q 748.4 339.867 750.267 343.467 L 750.267 343.467 Q 751.733 346.667 752.133 348.667 L 752.133 348.667 Q 753.733 356.8 754.933 362.8 L 754.933 362.8 Q 756.133 368.8 756.933 372.933 L 756.933 372.933 L 760.267 390.933 Q 761.6 396.267 762.667 400.267 L 762.667 400.267 Q 763.733 404.267 764.533 406.933 L 786 406.933 Q 784.133 405.067 782.733 403.4 L 782.733 403.4 Q 781.333 401.733 780.4 400.267 L 780.4 400.267 Q 778.667 397.333 776.8 390.133 L 776.8 390.133 Q 776.267 388.133 775.6 385.4 L 775.6 385.4 Q 774.933 382.667 774.267 379.2 L 774.267 379.2 L 769.467 355.733 Q 767.067 343.467 764.533 340.267 L 764.533 340.267 Q 761.733 336.267 756.667 335.467 L 756.667 335.467 Q 755.733 335.333 755.067 335.333 L 755.067 335.333 Q 754.533 335.333 754 335.333 L 754 335.333 Q 753.6 335.2 753.2 334.533 L 753.2 334.533 Q 753.333 334.133 753.733 333.733 L 753.733 333.733 Q 759.067 327.333 762.2 323.733 L 762.2 323.733 Q 765.333 320.133 766.267 319.067 L 766.267 319.067 Q 772.8 312.533 781.733 307.867 L 781.733 307.867 L 760.4 307.867 Q 762.533 309.2 762.533 312.4 L 762.533 312.4 Q 762.533 315.867 758.667 320.533 L 758.667 320.533 L 749.067 332.267 Q 748.8 332.667 747.6 333.333 L 747.6 333.333 Q 746.533 333.333 746.533 331.2 L 746.533 331.2 L 746.533 317.867 Q 746.533 310.267 751.2 307.867 L 751.2 307.867 L 726.267 307.867 Q 730.933 309.467 730.933 317.867 L 730.933 317.867 L 730.933 396.933 Q 730.933 404.933 726.267 406.933 L 751.2 406.933 Q 746.533 404.267 746.533 396.933 L 746.533 396.933 L 746.533 396.933 Z  M 793.867 406.933 L 836 406.933 L 836 376.667 L 835.333 376.667 Q 834.133 384.933 830.533 392.8 L 830.533 392.8 Q 825.467 403.067 819.2 403.067 L 819.2 403.067 Q 814.133 403.067 814.133 397.2 L 814.133 397.2 L 814.133 344.667 Q 814.133 340.4 818.4 340.4 L 818.4 340.4 Q 822.8 340.4 826.267 348.8 L 826.267 348.8 Q 829.067 355.867 829.067 361.067 L 829.867 361.067 L 829.867 335.867 L 814.133 335.867 L 814.133 317.467 Q 814.133 312.933 818.4 312.933 L 818.4 312.933 Q 827.333 312.933 831.733 320.4 L 831.733 320.4 Q 835.333 326.667 835.333 336.133 L 836 336.133 L 836 307.867 L 793.867 307.867 Q 798.533 309.467 798.533 317.867 L 798.533 317.867 L 798.533 396.933 Q 798.533 401.6 796.933 403.733 L 796.933 403.733 Q 794.667 406.667 793.867 406.933 L 793.867 406.933 L 793.867 406.933 Z  M 884.133 406.933 L 884.133 376.667 L 883.333 376.667 Q 882.267 384.933 878.533 392.667 L 878.533 392.667 Q 873.467 403.067 867.2 403.067 L 867.2 403.067 Q 864.133 403.067 864.133 397.2 L 864.133 397.2 L 864.133 317.867 Q 864.133 310.267 868.8 307.867 L 868.8 307.867 L 843.867 307.867 Q 848.533 309.467 848.533 317.867 L 848.533 317.867 L 848.533 396.933 Q 848.533 404.933 843.867 406.933 L 884.133 406.933 L 884.133 406.933 Z  M 891.867 406.933 L 934 406.933 L 934 376.667 L 933.333 376.667 Q 932.133 384.933 928.533 392.8 L 928.533 392.8 Q 923.467 403.067 917.2 403.067 L 917.2 403.067 Q 912.133 403.067 912.133 397.2 L 912.133 397.2 L 912.133 344.667 Q 912.133 340.4 916.4 340.4 L 916.4 340.4 Q 920.8 340.4 924.267 348.8 L 924.267 348.8 Q 927.067 355.867 927.067 361.067 L 927.867 361.067 L 927.867 335.867 L 912.133 335.867 L 912.133 317.467 Q 912.133 312.933 916.4 312.933 L 916.4 312.933 Q 925.333 312.933 929.733 320.4 L 929.733 320.4 Q 933.333 326.667 933.333 336.133 L 934 336.133 L 934 307.867 L 891.867 307.867 Q 896.533 309.467 896.533 317.867 L 896.533 317.867 L 896.533 396.933 Q 896.533 401.6 894.933 403.733 L 894.933 403.733 Q 892.667 406.667 891.867 406.933 L 891.867 406.933 L 891.867 406.933 Z  M 969.067 307.867 L 941.867 307.867 Q 946.133 309.867 948.133 314.533 L 948.133 314.533 L 958.267 338.267 L 958.267 396.933 Q 958.267 404.933 953.6 406.933 L 978.533 406.933 Q 973.867 404.267 973.867 396.933 L 973.867 396.933 L 973.867 338.267 L 982.667 318.267 Q 985.867 310.8 992.8 307.867 L 992.8 307.867 L 976.4 307.867 Q 979.2 309.733 979.2 313.2 L 979.2 313.2 Q 979.2 317.067 978.4 318.8 L 978.4 318.8 L 972.667 331.733 L 967.2 318.8 Q 965.867 315.733 965.867 313.2 L 965.867 313.2 Q 965.867 309.467 969.067 307.867 L 969.067 307.867 L 969.067 307.867 Z " fill="rgb(255,255,255)"/><rect x="1202.2" y="285.733" width="27.467" height="20.267" transform="matrix(1,0,0,1,0,0)" fill="none"/></g></svg>