<?xml version="1.0" encoding="UTF-8" standalone="no"?><!-- Generator: Gravit.io --><svg xmlns="http://www.w3.org/2000/svg" xmlns:xlink="http://www.w3.org/1999/xlink" style="isolation:isolate" viewBox="1198 2863.543 377.9 227.942" width="377.9pt" height="227.942pt"><g><path d=" M 1531.736 2920.909 C 1525.278 2888.142 1496.5 2863.543 1461.929 2863.543 C 1434.481 2863.543 1410.642 2879.119 1398.77 2901.913 C 1370.182 2904.953 1347.958 2929.172 1347.958 2958.519 C 1347.958 2989.956 1373.506 3015.505 1404.943 3015.505 L 1528.412 3015.505 C 1554.625 3015.505 1575.9 2994.23 1575.9 2968.017 C 1575.9 2942.943 1556.43 2922.618 1531.736 2920.909 Z " fill="rgb(217,217,217)"/><path d=" M 1443.857 2946.515 C 1435.217 2902.68 1396.719 2869.772 1350.47 2869.772 C 1313.75 2869.772 1281.858 2890.61 1265.976 2921.104 C 1227.732 2925.17 1198 2957.569 1198 2996.83 C 1198 3038.887 1232.179 3073.065 1274.235 3073.065 L 1439.41 3073.065 C 1474.478 3073.065 1502.939 3044.604 1502.939 3009.536 C 1502.939 2975.993 1476.892 2948.802 1443.857 2946.515 Z " fill="rgb(255,255,255)"/><path d=" M 1383.696 2996.889 C 1390.154 2964.123 1418.932 2939.524 1453.503 2939.524 C 1480.951 2939.524 1504.79 2955.1 1516.662 2977.894 C 1545.25 2980.933 1567.474 3005.152 1567.474 3034.5 C 1567.474 3065.937 1541.926 3091.485 1510.489 3091.485 L 1387.02 3091.485 C 1360.807 3091.485 1339.532 3070.211 1339.532 3043.997 C 1339.532 3018.924 1359.002 2998.599 1383.696 2996.889 Z " fill="rgb(187,187,187)"/></g></svg>