<?xml version="1.0" encoding="UTF-8" standalone="no"?><!-- Generator: Gravit.io --><svg xmlns="http://www.w3.org/2000/svg" xmlns:xlink="http://www.w3.org/1999/xlink" style="isolation:isolate" viewBox="3281.957 2498.786 337.043 261.758" width="337.043pt" height="261.758pt"><g><path d=" M 3559.457 2633.005 C 3550.749 2588.828 3511.95 2555.663 3465.34 2555.663 C 3428.333 2555.663 3396.192 2576.663 3380.186 2607.395 C 3341.643 2611.493 3311.679 2644.145 3311.679 2683.713 C 3311.679 2726.098 3346.125 2760.543 3388.509 2760.543 L 3554.975 2760.543 C 3590.317 2760.543 3619 2731.86 3619 2696.518 C 3619 2662.713 3592.75 2635.31 3559.457 2633.005 Z " fill="rgb(255,255,255)"/><path d=" M 3335.368 2498.786 C 3303.834 2513.463 3281.957 2545.442 3281.957 2582.491 C 3281.957 2633.43 3323.313 2674.786 3374.252 2674.786 C 3409.238 2674.786 3439.704 2655.276 3455.34 2626.543 C 3443.524 2632.058 3430.346 2635.133 3416.456 2635.133 C 3365.517 2635.133 3324.161 2593.777 3324.161 2542.838 C 3324.161 2526.886 3328.217 2511.873 3335.368 2498.786 Z " fill="rgb(20,80,110)"/></g></svg>