<?xml version="1.0" encoding="UTF-8" standalone="no"?><!-- Generator: Gravit.io --><svg xmlns="http://www.w3.org/2000/svg" xmlns:xlink="http://www.w3.org/1999/xlink" style="isolation:isolate" viewBox="504 1614.496 307.321 314.881" width="307.321pt" height="314.881pt"><g><path d=" M 751.777 1691.838 C 743.07 1647.661 704.271 1614.496 657.66 1614.496 C 620.654 1614.496 588.513 1635.496 572.507 1666.228 C 533.964 1670.326 504 1702.979 504 1742.546 C 504 1784.931 538.446 1819.376 580.83 1819.376 L 747.296 1819.376 C 782.638 1819.376 811.321 1790.693 811.321 1755.351 C 811.321 1721.546 785.07 1694.143 751.777 1691.838 Z " fill="rgb(255,255,255)"/><path d=" M 724.128 1895.488 L 724.128 1895.488 C 732.105 1895.488 734.829 1889.054 730.206 1881.13 L 724.128 1870.71 L 718.049 1881.13 C 713.427 1889.054 716.151 1895.488 724.128 1895.488 Z  M 600.157 1895.488 L 600.157 1895.488 C 608.134 1895.488 610.857 1889.054 606.235 1881.13 L 600.157 1870.71 L 594.078 1881.13 C 589.456 1889.054 592.179 1895.488 600.157 1895.488 Z  M 641.48 1895.488 L 641.48 1895.488 C 649.457 1895.488 652.181 1889.054 647.559 1881.13 L 641.48 1870.71 L 635.402 1881.13 C 630.779 1889.054 633.503 1895.488 641.48 1895.488 Z  M 682.804 1895.488 L 682.804 1895.488 C 690.781 1895.488 693.505 1889.054 688.883 1881.13 L 682.804 1870.71 L 676.725 1881.13 C 672.103 1889.054 674.827 1895.488 682.804 1895.488 Z  M 579.495 1929.376 L 579.495 1929.376 C 587.472 1929.376 590.196 1922.943 585.573 1915.019 L 579.495 1904.599 L 573.416 1915.019 C 568.794 1922.943 571.518 1929.376 579.495 1929.376 Z  M 620.818 1929.376 L 620.818 1929.376 C 628.796 1929.376 631.519 1922.943 626.897 1915.019 L 620.818 1904.599 L 614.74 1915.019 C 610.118 1922.943 612.841 1929.376 620.818 1929.376 Z  M 662.142 1929.376 L 662.142 1929.376 C 670.119 1929.376 672.843 1922.943 668.221 1915.019 L 662.142 1904.599 L 656.064 1915.019 C 651.441 1922.943 654.165 1929.376 662.142 1929.376 Z  M 703.466 1929.376 L 703.466 1929.376 C 711.443 1929.376 714.167 1922.943 709.544 1915.019 L 703.466 1904.599 L 697.387 1915.019 C 692.765 1922.943 695.489 1929.376 703.466 1929.376 Z  M 744.79 1929.376 L 744.79 1929.376 C 752.767 1929.376 755.49 1922.943 750.868 1915.019 L 744.79 1904.599 L 738.711 1915.019 C 734.089 1922.943 736.812 1929.376 744.79 1929.376 Z  M 579.495 1861.599 L 579.495 1861.599 C 587.472 1861.599 590.196 1855.166 585.573 1847.242 L 579.495 1836.821 L 573.416 1847.242 C 568.794 1855.166 571.518 1861.599 579.495 1861.599 Z  M 620.818 1861.599 L 620.818 1861.599 C 628.796 1861.599 631.519 1855.166 626.897 1847.242 L 620.818 1836.821 L 614.74 1847.242 C 610.118 1855.166 612.841 1861.599 620.818 1861.599 Z  M 662.142 1861.599 L 662.142 1861.599 C 670.119 1861.599 672.843 1855.166 668.221 1847.242 L 662.142 1836.821 L 656.064 1847.242 C 651.441 1855.166 654.165 1861.599 662.142 1861.599 Z  M 703.466 1861.599 L 703.466 1861.599 C 711.443 1861.599 714.167 1855.166 709.544 1847.242 L 703.466 1836.821 L 697.387 1847.242 C 692.765 1855.166 695.489 1861.599 703.466 1861.599 Z  M 744.79 1861.599 L 744.79 1861.599 C 752.767 1861.599 755.49 1855.166 750.868 1847.242 L 744.79 1836.821 L 738.711 1847.242 C 734.089 1855.166 736.812 1861.599 744.79 1861.599 Z " fill-rule="evenodd" fill="rgb(20,80,110)"/></g></svg>