<?xml version="1.0" encoding="UTF-8" standalone="no"?><!-- Generator: Gravit.io --><svg xmlns="http://www.w3.org/2000/svg" xmlns:xlink="http://www.w3.org/1999/xlink" style="isolation:isolate" viewBox="1940.815 82.592 216.578 268.06" width="216.578pt" height="268.06pt"><path d=" M 1944.26 217.372 C 1952.083 194.134 1971.405 174.886 1982.647 171.738 C 1967.653 187.81 1992 238.75 2011 241 C 1981.503 165.304 2073.53 76.948 2072.183 82.875 C 2054 162.746 2129.292 165.71 2150.439 220.663 C 2165.524 256.761 2155.288 298.245 2127.272 324.241 C 2101.815 347.542 2066.392 353.603 2033.662 349.428 C 2014.225 346.913 1965.382 329.84 1947.93 278.602 Q 1940.134 260.714 1940.881 239.761 C 1940.577 233.446 1941.436 227.147 1943.123 221.071 Q 1943.526 219.048 1944 217 L 1944.26 217.372 Z " fill="rgb(236,108,11)"/></svg>