<?xml version="1.0" encoding="UTF-8" standalone="no"?><!-- Generator: Gravit.io --><svg xmlns="http://www.w3.org/2000/svg" xmlns:xlink="http://www.w3.org/1999/xlink" style="isolation:isolate" viewBox="538 2027.844 307.321 289.881" width="307.321pt" height="289.881pt"><g><path d=" M 785.777 2105.186 C 777.07 2061.009 738.271 2027.844 691.66 2027.844 C 654.654 2027.844 622.513 2048.844 606.507 2079.576 C 567.964 2083.674 538 2116.327 538 2155.894 C 538 2198.279 572.446 2232.724 614.83 2232.724 L 781.296 2232.724 C 816.638 2232.724 845.321 2204.041 845.321 2168.699 C 845.321 2134.894 819.07 2107.491 785.777 2105.186 Z " fill="rgb(255,255,255)"/><path d=" M 612.665 2300.724 L 651.5 2300.724 C 656.191 2300.724 660 2304.533 660 2309.224 L 660 2309.224 C 660 2313.916 656.191 2317.724 651.5 2317.724 L 612.665 2317.724 C 607.974 2317.724 604.165 2313.916 604.165 2309.224 L 604.165 2309.224 C 604.165 2304.533 607.974 2300.724 612.665 2300.724 Z  M 676.778 2300.724 L 705.5 2300.724 C 710.191 2300.724 714 2304.533 714 2309.224 L 714 2309.224 C 714 2313.916 710.191 2317.724 705.5 2317.724 L 676.778 2317.724 C 672.086 2317.724 668.278 2313.916 668.278 2309.224 L 668.278 2309.224 C 668.278 2304.533 672.086 2300.724 676.778 2300.724 Z  M 730.778 2300.724 L 777.62 2300.724 C 782.311 2300.724 786.12 2304.533 786.12 2309.224 L 786.12 2309.224 C 786.12 2313.916 782.311 2317.724 777.62 2317.724 L 730.778 2317.724 C 726.086 2317.724 722.278 2313.916 722.278 2309.224 L 722.278 2309.224 C 722.278 2304.533 726.086 2300.724 730.778 2300.724 Z  M 707.438 2275.447 L 746.5 2275.447 C 751.191 2275.447 755 2279.255 755 2283.947 L 755 2283.947 C 755 2288.638 751.191 2292.447 746.5 2292.447 L 707.438 2292.447 C 702.747 2292.447 698.938 2288.638 698.938 2283.947 L 698.938 2283.947 C 698.938 2279.255 702.747 2275.447 707.438 2275.447 Z  M 771.778 2275.447 L 777.531 2275.447 C 782.222 2275.447 786.031 2279.255 786.031 2283.947 L 786.031 2283.947 C 786.031 2288.638 782.222 2292.447 777.531 2292.447 L 771.778 2292.447 C 767.086 2292.447 763.278 2288.638 763.278 2283.947 L 763.278 2283.947 C 763.278 2279.255 767.086 2275.447 771.778 2275.447 Z  M 612.665 2250.169 L 667.5 2250.169 C 672.191 2250.169 676 2253.978 676 2258.669 L 676 2258.669 C 676 2263.36 672.191 2267.169 667.5 2267.169 L 612.665 2267.169 C 607.974 2267.169 604.165 2263.36 604.165 2258.669 L 604.165 2258.669 C 604.165 2253.978 607.974 2250.169 612.665 2250.169 Z  M 692.778 2250.169 L 752.342 2250.169 C 757.033 2250.169 760.842 2253.978 760.842 2258.669 L 760.842 2258.669 C 760.842 2263.36 757.033 2267.169 752.342 2267.169 L 692.778 2267.169 C 688.086 2267.169 684.278 2263.36 684.278 2258.669 L 684.278 2258.669 C 684.278 2253.978 688.086 2250.169 692.778 2250.169 Z  M 648.86 2275.447 L 682.16 2275.447 C 686.852 2275.447 690.66 2279.255 690.66 2283.947 L 690.66 2283.947 C 690.66 2288.638 686.852 2292.447 682.16 2292.447 L 648.86 2292.447 C 644.169 2292.447 640.36 2288.638 640.36 2283.947 L 640.36 2283.947 C 640.36 2279.255 644.169 2275.447 648.86 2275.447 Z  M 612.665 2275.447 L 623.582 2275.447 C 628.274 2275.447 632.082 2279.255 632.082 2283.947 L 632.082 2283.947 C 632.082 2288.638 628.274 2292.447 623.582 2292.447 L 612.665 2292.447 C 607.974 2292.447 604.165 2288.638 604.165 2283.947 L 604.165 2283.947 C 604.165 2279.255 607.974 2275.447 612.665 2275.447 Z  M 769.12 2258.669 C 769.12 2253.978 772.928 2250.169 777.62 2250.169 C 782.311 2250.169 786.12 2253.978 786.12 2258.669 C 786.12 2263.36 782.311 2267.169 777.62 2267.169 C 772.928 2267.169 769.12 2263.36 769.12 2258.669 Z " fill-rule="evenodd" fill="rgb(187,187,187)"/></g></svg>