<?xml version="1.0" encoding="UTF-8" standalone="no"?><!-- Generator: Gravit.io --><svg xmlns="http://www.w3.org/2000/svg" xmlns:xlink="http://www.w3.org/1999/xlink" style="isolation:isolate" viewBox="2286.624 400.848 337.043 370" width="337.043pt" height="370pt"><g><path d=" M 2564.124 533.31 C 2555.416 489.133 2516.617 455.967 2470.007 455.967 C 2433 455.967 2400.86 476.968 2384.853 507.7 C 2346.31 511.797 2316.346 544.45 2316.346 584.018 C 2316.346 626.402 2350.792 660.848 2393.177 660.848 L 2559.642 660.848 C 2594.984 660.848 2623.667 632.165 2623.667 596.823 C 2623.667 563.018 2597.417 535.615 2564.124 533.31 Z " fill="rgb(255,255,255)"/><path d=" M 2536.474 736.959 L 2536.474 736.959 C 2544.451 736.959 2547.175 730.526 2542.553 722.602 L 2536.474 712.182 L 2530.396 722.602 C 2525.773 730.526 2528.497 736.959 2536.474 736.959 Z  M 2412.503 736.959 L 2412.503 736.959 C 2420.48 736.959 2423.204 730.526 2418.582 722.602 L 2412.503 712.182 L 2406.424 722.602 C 2401.802 730.526 2404.526 736.959 2412.503 736.959 Z  M 2453.827 736.959 L 2453.827 736.959 C 2461.804 736.959 2464.528 730.526 2459.905 722.602 L 2453.827 712.182 L 2447.748 722.602 C 2443.126 730.526 2445.85 736.959 2453.827 736.959 Z  M 2495.15 736.959 L 2495.15 736.959 C 2503.128 736.959 2505.851 730.526 2501.229 722.602 L 2495.15 712.182 L 2489.072 722.602 C 2484.45 730.526 2487.173 736.959 2495.15 736.959 Z  M 2391.841 770.848 L 2391.841 770.848 C 2399.818 770.848 2402.542 764.415 2397.92 756.491 L 2391.841 746.07 L 2385.762 756.491 C 2381.14 764.415 2383.864 770.848 2391.841 770.848 Z  M 2433.165 770.848 L 2433.165 770.848 C 2441.142 770.848 2443.866 764.415 2439.243 756.491 L 2433.165 746.07 L 2427.086 756.491 C 2422.464 764.415 2425.188 770.848 2433.165 770.848 Z  M 2474.489 770.848 L 2474.489 770.848 C 2482.466 770.848 2485.189 764.415 2480.567 756.491 L 2474.489 746.07 L 2468.41 756.491 C 2463.788 764.415 2466.511 770.848 2474.489 770.848 Z  M 2515.812 770.848 L 2515.812 770.848 C 2523.789 770.848 2526.513 764.415 2521.891 756.491 L 2515.812 746.07 L 2509.734 756.491 C 2505.111 764.415 2507.835 770.848 2515.812 770.848 Z  M 2557.136 770.848 L 2557.136 770.848 C 2565.113 770.848 2567.837 764.415 2563.215 756.491 L 2557.136 746.07 L 2551.057 756.491 C 2546.435 764.415 2549.159 770.848 2557.136 770.848 Z  M 2391.841 703.07 L 2391.841 703.07 C 2399.818 703.07 2402.542 696.637 2397.92 688.713 L 2391.841 678.293 L 2385.762 688.713 C 2381.14 696.637 2383.864 703.07 2391.841 703.07 Z  M 2433.165 703.07 L 2433.165 703.07 C 2441.142 703.07 2443.866 696.637 2439.243 688.713 L 2433.165 678.293 L 2427.086 688.713 C 2422.464 696.637 2425.188 703.07 2433.165 703.07 Z  M 2474.489 703.07 L 2474.489 703.07 C 2482.466 703.07 2485.189 696.637 2480.567 688.713 L 2474.489 678.293 L 2468.41 688.713 C 2463.788 696.637 2466.511 703.07 2474.489 703.07 Z  M 2515.812 703.07 L 2515.812 703.07 C 2523.789 703.07 2526.513 696.637 2521.891 688.713 L 2515.812 678.293 L 2509.734 688.713 C 2505.111 696.637 2507.835 703.07 2515.812 703.07 Z  M 2557.136 703.07 L 2557.136 703.07 C 2565.113 703.07 2567.837 696.637 2563.215 688.713 L 2557.136 678.293 L 2551.057 688.713 C 2546.435 696.637 2549.159 703.07 2557.136 703.07 Z " fill-rule="evenodd" fill="rgb(20,80,110)"/><path d=" M 2340.035 400.848 C 2308.501 415.525 2286.624 447.504 2286.624 484.553 C 2286.624 535.492 2327.98 576.848 2378.919 576.848 C 2413.906 576.848 2444.371 557.339 2460.007 528.606 C 2448.191 534.12 2435.013 537.195 2421.123 537.195 C 2370.184 537.195 2328.828 495.839 2328.828 444.9 C 2328.828 428.948 2332.884 413.935 2340.035 400.848 Z " fill="rgb(20,80,110)"/></g></svg>