<?xml version="1.0" encoding="UTF-8" standalone="no"?><!-- Generator: Gravit.io --><svg xmlns="http://www.w3.org/2000/svg" xmlns:xlink="http://www.w3.org/1999/xlink" style="isolation:isolate" viewBox="949 1455.941 337.043 364.758" width="337.043pt" height="364.758pt"><g><path d=" M 1064.376 1727.305 L 1064.376 1727.305 C 1068.409 1728.977 1070.326 1733.609 1068.654 1737.643 L 1058.942 1761.068 C 1057.27 1765.102 1052.638 1767.018 1048.605 1765.346 L 1048.605 1765.346 C 1044.572 1763.674 1042.655 1759.042 1044.327 1755.009 L 1054.038 1731.583 C 1055.711 1727.55 1060.343 1725.633 1064.376 1727.305 Z  M 1102.906 1727.305 L 1102.906 1727.305 C 1106.939 1728.977 1108.856 1733.609 1107.184 1737.643 L 1082.966 1796.059 C 1081.294 1800.092 1076.662 1802.009 1072.629 1800.337 L 1072.629 1800.337 C 1068.595 1798.665 1066.678 1794.033 1068.35 1790 L 1092.569 1731.583 C 1094.241 1727.55 1098.873 1725.633 1102.906 1727.305 Z  M 1140.099 1727.305 L 1140.099 1727.305 C 1144.133 1728.977 1146.05 1733.609 1144.378 1737.643 L 1128.183 1776.707 C 1126.51 1780.74 1121.878 1782.657 1117.845 1780.985 L 1117.845 1780.985 C 1113.812 1779.313 1111.895 1774.681 1113.567 1770.647 L 1129.762 1731.583 C 1131.434 1727.55 1136.066 1725.633 1140.099 1727.305 Z  M 1178.088 1727.305 L 1178.088 1727.305 C 1182.121 1728.977 1184.038 1733.609 1182.366 1737.643 L 1151.764 1811.459 C 1150.092 1815.492 1145.459 1817.409 1141.426 1815.737 L 1141.426 1815.737 C 1137.393 1814.065 1135.476 1809.433 1137.148 1805.4 L 1167.751 1731.583 C 1169.423 1727.55 1174.055 1725.633 1178.088 1727.305 Z  M 1216.16 1727.305 L 1216.16 1727.305 C 1220.193 1728.977 1222.11 1733.609 1220.438 1737.643 L 1188.029 1815.816 C 1186.357 1819.85 1181.725 1821.767 1177.692 1820.095 L 1177.692 1820.095 C 1173.659 1818.422 1171.742 1813.79 1173.414 1809.757 L 1205.823 1731.583 C 1207.495 1727.55 1212.127 1725.633 1216.16 1727.305 Z " fill-rule="evenodd" fill="rgb(20,80,110)"/><path d=" M 1226.499 1590.161 C 1217.792 1545.983 1178.993 1512.818 1132.383 1512.818 C 1095.376 1512.818 1063.235 1533.819 1047.229 1564.551 C 1008.686 1568.648 978.722 1601.301 978.722 1640.869 C 978.722 1683.253 1013.168 1717.699 1055.552 1717.699 L 1222.018 1717.699 C 1257.36 1717.699 1286.043 1689.016 1286.043 1653.674 C 1286.043 1619.868 1259.793 1592.466 1226.499 1590.161 Z " fill="rgb(255,255,255)"/><path d=" M 1002.411 1455.941 C 970.877 1470.618 949 1502.598 949 1539.646 C 949 1590.585 990.356 1631.941 1041.295 1631.941 C 1076.281 1631.941 1106.747 1612.432 1122.383 1583.699 C 1110.566 1589.214 1097.389 1592.289 1083.498 1592.289 C 1032.559 1592.289 991.204 1550.933 991.204 1499.994 C 991.204 1484.041 995.26 1469.029 1002.411 1455.941 Z " fill="rgb(20,80,110)"/></g></svg>