<?xml version="1.0" encoding="UTF-8" standalone="no"?><!-- Generator: Gravit.io --><svg xmlns="http://www.w3.org/2000/svg" xmlns:xlink="http://www.w3.org/1999/xlink" style="isolation:isolate" viewBox="375.34 1148.061 307.321 307.881" width="307.321pt" height="307.881pt"><g><path d=" M 460.993 1362.548 L 460.993 1362.548 C 465.027 1364.22 466.944 1368.852 465.271 1372.885 L 455.56 1396.311 C 453.888 1400.344 449.256 1402.261 445.222 1400.589 L 445.222 1400.589 C 441.189 1398.917 439.272 1394.285 440.944 1390.251 L 450.656 1366.826 C 452.328 1362.793 456.96 1360.876 460.993 1362.548 Z  M 499.523 1362.548 L 499.523 1362.548 C 503.557 1364.22 505.474 1368.852 503.802 1372.885 L 479.583 1431.301 C 477.911 1435.335 473.279 1437.252 469.246 1435.579 L 469.246 1435.579 C 465.213 1433.907 463.296 1429.275 464.968 1425.242 L 489.186 1366.826 C 490.858 1362.793 495.49 1360.876 499.523 1362.548 Z  M 536.717 1362.548 L 536.717 1362.548 C 540.75 1364.22 542.667 1368.852 540.995 1372.885 L 524.8 1411.949 C 523.128 1415.982 518.496 1417.899 514.463 1416.227 L 514.463 1416.227 C 510.429 1414.555 508.512 1409.923 510.185 1405.89 L 526.38 1366.826 C 528.052 1362.793 532.684 1360.876 536.717 1362.548 Z  M 574.706 1362.548 L 574.706 1362.548 C 578.739 1364.22 580.656 1368.852 578.984 1372.885 L 548.381 1446.701 C 546.709 1450.735 542.077 1452.652 538.044 1450.979 L 538.044 1450.979 C 534.01 1449.307 532.094 1444.675 533.766 1440.642 L 564.368 1366.826 C 566.04 1362.793 570.672 1360.876 574.706 1362.548 Z  M 612.778 1362.548 L 612.778 1362.548 C 616.811 1364.22 618.728 1368.852 617.056 1372.885 L 584.647 1451.059 C 582.975 1455.092 578.343 1457.009 574.309 1455.337 L 574.309 1455.337 C 570.276 1453.665 568.359 1449.033 570.031 1445 L 602.44 1366.826 C 604.112 1362.793 608.744 1360.876 612.778 1362.548 Z " fill-rule="evenodd" fill="rgb(20,80,110)"/><path d=" M 623.117 1225.403 C 614.41 1181.226 575.61 1148.061 529 1148.061 C 491.993 1148.061 459.853 1169.061 443.847 1199.793 C 405.303 1203.891 375.34 1236.544 375.34 1276.111 C 375.34 1318.496 409.785 1352.941 452.17 1352.941 L 618.635 1352.941 C 653.977 1352.941 682.66 1324.258 682.66 1288.916 C 682.66 1255.111 656.41 1227.708 623.117 1225.403 Z " fill="rgb(255,255,255)"/></g></svg>