<?xml version="1.0" encoding="UTF-8" standalone="no"?><!-- Generator: Gravit.io --><svg xmlns="http://www.w3.org/2000/svg" xmlns:xlink="http://www.w3.org/1999/xlink" style="isolation:isolate" viewBox="1018.679 2130.924 307.321 350.952" width="307.321pt" height="350.952pt"><g><path d=" M 1172.994 2305.805 L 1166.35 2349.932 L 1236.84 2349.932 L 1139.285 2481.876 L 1171.16 2373.922 L 1127.84 2373.922 L 1143.256 2305.805 L 1172.994 2305.805 L 1172.994 2305.805 Z " fill="rgb(255,213,62)"/><path d=" M 1266.457 2208.266 C 1257.749 2164.089 1218.95 2130.924 1172.34 2130.924 C 1135.333 2130.924 1103.192 2151.924 1087.186 2182.656 C 1048.643 2186.754 1018.679 2219.407 1018.679 2258.974 C 1018.679 2301.359 1053.125 2335.805 1095.509 2335.805 L 1261.975 2335.805 C 1297.317 2335.805 1326 2307.121 1326 2271.779 C 1326 2237.974 1299.75 2210.571 1266.457 2208.266 Z " fill="rgb(187,187,187)"/></g></svg>