<?xml version="1.0" encoding="UTF-8" standalone="no"?><!-- Generator: Gravit.io --><svg xmlns="http://www.w3.org/2000/svg" xmlns:xlink="http://www.w3.org/1999/xlink" style="isolation:isolate" viewBox="300.34 525.958 357.321 380" width="357.321pt" height="380pt"><g><circle vector-effect="non-scaling-stroke" cx="393.33961381548613" cy="618.9579634791758" r="93" fill="rgb(255,213,62)"/><path d=" M 598.117 668.42 C 589.41 624.242 550.61 591.077 504 591.077 C 466.993 591.077 434.853 612.078 418.847 642.81 C 380.303 646.907 350.34 679.56 350.34 719.128 C 350.34 761.512 384.785 795.958 427.17 795.958 L 593.635 795.958 C 628.977 795.958 657.66 767.275 657.66 731.933 C 657.66 698.128 631.41 670.725 598.117 668.42 Z " fill="rgb(255,255,255)"/><path d=" M 570.467 872.069 L 570.467 872.069 C 578.445 872.069 581.168 865.636 576.546 857.712 L 570.467 847.292 L 564.389 857.712 C 559.766 865.636 562.49 872.069 570.467 872.069 Z  M 446.496 872.069 L 446.496 872.069 C 454.473 872.069 457.197 865.636 452.575 857.712 L 446.496 847.292 L 440.418 857.712 C 435.795 865.636 438.519 872.069 446.496 872.069 Z  M 487.82 872.069 L 487.82 872.069 C 495.797 872.069 498.521 865.636 493.898 857.712 L 487.82 847.292 L 481.741 857.712 C 477.119 865.636 479.843 872.069 487.82 872.069 Z  M 529.144 872.069 L 529.144 872.069 C 537.121 872.069 539.845 865.636 535.222 857.712 L 529.144 847.292 L 523.065 857.712 C 518.443 865.636 521.166 872.069 529.144 872.069 Z  M 425.834 905.958 L 425.834 905.958 C 433.811 905.958 436.535 899.525 431.913 891.601 L 425.834 881.18 L 419.756 891.601 C 415.133 899.525 417.857 905.958 425.834 905.958 Z  M 467.158 905.958 L 467.158 905.958 C 475.135 905.958 477.859 899.525 473.237 891.601 L 467.158 881.18 L 461.079 891.601 C 456.457 899.525 459.181 905.958 467.158 905.958 Z  M 508.482 905.958 L 508.482 905.958 C 516.459 905.958 519.183 899.525 514.56 891.601 L 508.482 881.18 L 502.403 891.601 C 497.781 899.525 500.505 905.958 508.482 905.958 Z  M 549.805 905.958 L 549.805 905.958 C 557.783 905.958 560.506 899.525 555.884 891.601 L 549.805 881.18 L 543.727 891.601 C 539.105 899.525 541.828 905.958 549.805 905.958 Z  M 591.129 905.958 L 591.129 905.958 C 599.106 905.958 601.83 899.525 597.208 891.601 L 591.129 881.18 L 585.051 891.601 C 580.428 899.525 583.152 905.958 591.129 905.958 Z  M 425.834 838.18 L 425.834 838.18 C 433.811 838.18 436.535 831.747 431.913 823.823 L 425.834 813.403 L 419.756 823.823 C 415.133 831.747 417.857 838.18 425.834 838.18 Z  M 467.158 838.18 L 467.158 838.18 C 475.135 838.18 477.859 831.747 473.237 823.823 L 467.158 813.403 L 461.079 823.823 C 456.457 831.747 459.181 838.18 467.158 838.18 Z  M 508.482 838.18 L 508.482 838.18 C 516.459 838.18 519.183 831.747 514.56 823.823 L 508.482 813.403 L 502.403 823.823 C 497.781 831.747 500.505 838.18 508.482 838.18 Z  M 549.805 838.18 L 549.805 838.18 C 557.783 838.18 560.506 831.747 555.884 823.823 L 549.805 813.403 L 543.727 823.823 C 539.105 831.747 541.828 838.18 549.805 838.18 Z  M 591.129 838.18 L 591.129 838.18 C 599.106 838.18 601.83 831.747 597.208 823.823 L 591.129 813.403 L 585.051 823.823 C 580.428 831.747 583.152 838.18 591.129 838.18 Z " fill-rule="evenodd" fill="rgb(20,80,110)"/></g></svg>