<?xml version="1.0" encoding="UTF-8" standalone="no"?><!-- Generator: Gravit.io --><svg xmlns="http://www.w3.org/2000/svg" xmlns:xlink="http://www.w3.org/1999/xlink" style="isolation:isolate" viewBox="2072.183 2521.517 388.974 282.345" width="388.974pt" height="282.345pt"><g><circle vector-effect="non-scaling-stroke" cx="2383.9386153359196" cy="2598.7357896696167" r="77.21901490218897" fill="rgb(255,213,62)"/><path d=" M 2345.899 2606.956 C 2336.28 2558.154 2293.419 2521.517 2241.93 2521.517 C 2201.049 2521.517 2165.544 2544.715 2147.862 2578.665 C 2105.284 2583.191 2072.183 2619.262 2072.183 2662.972 C 2072.183 2709.794 2110.235 2747.845 2157.057 2747.845 L 2340.948 2747.845 C 2379.99 2747.845 2411.676 2716.159 2411.676 2677.118 C 2411.676 2639.773 2382.678 2609.502 2345.899 2606.956 Z " fill="rgb(255,255,255)"/><path d=" M 2378.037 2698.547 C 2370.847 2662.067 2338.809 2634.681 2300.32 2634.681 C 2269.762 2634.681 2243.222 2652.022 2230.004 2677.399 C 2198.177 2680.783 2173.435 2707.746 2173.435 2740.419 C 2173.435 2775.418 2201.878 2803.862 2236.877 2803.862 L 2374.337 2803.862 C 2403.52 2803.862 2427.205 2780.176 2427.205 2750.993 C 2427.205 2723.078 2405.529 2700.45 2378.037 2698.547 Z " fill="rgb(187,187,187)"/></g></svg>