<?xml version="1.0" encoding="UTF-8" standalone="no"?><!-- Generator: Gravit.io --><svg xmlns="http://www.w3.org/2000/svg" xmlns:xlink="http://www.w3.org/1999/xlink" style="isolation:isolate" viewBox="1407 1719.052 361.803 373" width="361.803pt" height="373pt"><g><circle vector-effect="non-scaling-stroke" cx="1499.9999999999998" cy="1812.052111238604" r="93" fill="rgb(255,213,62)"/><path d=" M 1547.135 1998.658 L 1547.135 1998.658 C 1551.169 2000.331 1553.086 2004.963 1551.414 2008.996 L 1541.702 2032.421 C 1540.03 2036.455 1535.398 2038.372 1531.364 2036.7 L 1531.364 2036.7 C 1527.331 2035.027 1525.414 2030.395 1527.086 2026.362 L 1536.798 2002.937 C 1538.47 1998.903 1543.102 1996.986 1547.135 1998.658 Z  M 1585.666 1998.658 L 1585.666 1998.658 C 1589.699 2000.331 1591.616 2004.963 1589.944 2008.996 L 1565.726 2067.412 C 1564.053 2071.445 1559.421 2073.362 1555.388 2071.69 L 1555.388 2071.69 C 1551.355 2070.018 1549.438 2065.386 1551.11 2061.353 L 1575.328 2002.937 C 1577 1998.903 1581.632 1996.986 1585.666 1998.658 Z  M 1622.859 1998.658 L 1622.859 1998.658 C 1626.892 2000.331 1628.809 2004.963 1627.137 2008.996 L 1610.942 2048.06 C 1609.27 2052.093 1604.638 2054.01 1600.605 2052.338 L 1600.605 2052.338 C 1596.572 2050.666 1594.655 2046.034 1596.327 2042 L 1612.522 2002.937 C 1614.194 1998.903 1618.826 1996.986 1622.859 1998.658 Z  M 1660.848 1998.658 L 1660.848 1998.658 C 1664.881 2000.331 1666.798 2004.963 1665.126 2008.996 L 1634.523 2082.812 C 1632.851 2086.845 1628.219 2088.762 1624.186 2087.09 L 1624.186 2087.09 C 1620.153 2085.418 1618.236 2080.786 1619.908 2076.753 L 1650.51 2002.937 C 1652.182 1998.903 1656.814 1996.986 1660.848 1998.658 Z  M 1698.92 1998.658 L 1698.92 1998.658 C 1702.953 2000.331 1704.87 2004.963 1703.198 2008.996 L 1670.789 2087.17 C 1669.117 2091.203 1664.485 2093.12 1660.451 2091.448 L 1660.451 2091.448 C 1656.418 2089.776 1654.501 2085.144 1656.173 2081.11 L 1688.582 2002.937 C 1690.255 1998.903 1694.887 1996.986 1698.92 1998.658 Z " fill-rule="evenodd" fill="rgb(20,80,110)"/><path d=" M 1709.259 1861.514 C 1700.552 1817.337 1661.752 1784.172 1615.142 1784.172 C 1578.136 1784.172 1545.995 1805.172 1529.989 1835.904 C 1491.446 1840.002 1461.482 1872.654 1461.482 1912.222 C 1461.482 1954.607 1495.927 1989.052 1538.312 1989.052 L 1704.777 1989.052 C 1740.119 1989.052 1768.803 1960.369 1768.803 1925.027 C 1768.803 1891.222 1742.552 1863.819 1709.259 1861.514 Z " fill="rgb(255,255,255)"/></g></svg>