<?xml version="1.0" encoding="UTF-8" standalone="no"?><!-- Generator: Gravit.io --><svg xmlns="http://www.w3.org/2000/svg" xmlns:xlink="http://www.w3.org/1999/xlink" style="isolation:isolate" viewBox="2415.856 1919.668 374.631 239" width="374.631pt" height="239pt"><path d=" M 2683.926 1999.49 C 2657.02 1999.49 2627.172 1991.312 2596.139 1969.069 C 2511.295 1908.188 2443.382 1972.012 2435.777 1979.617 C 2431.076 1984.28 2424.082 1984.28 2419.381 1979.617 C 2414.68 1974.916 2414.68 1967.922 2419.381 1963.221 C 2428.171 1954.431 2509.499 1878.378 2610.165 1950.342 C 2695.047 2011.185 2762.922 1947.399 2770.528 1939.794 C 2775.19 1935.131 2782.222 1935.131 2786.923 1939.794 C 2791.624 1944.495 2791.624 1951.489 2786.923 1956.189 C 2767.012 1976.674 2729.558 1999.49 2683.926 1999.49 Z  M 2610.203 2027.581 C 2658.205 2062.091 2700.895 2055.671 2727.838 2045.123 C 2733.686 2042.791 2740.718 2045.696 2743.049 2051.543 C 2745.38 2057.391 2742.476 2064.423 2736.628 2066.754 C 2722.564 2072.601 2704.449 2077.302 2684.537 2077.302 C 2658.778 2077.302 2628.357 2069.697 2596.751 2046.881 C 2511.907 1985.999 2443.994 2049.823 2436.388 2057.429 C 2431.687 2062.13 2424.693 2062.13 2419.993 2057.429 C 2415.33 2052.766 2415.33 2045.734 2419.993 2041.033 C 2428.21 2031.67 2508.964 1955.616 2610.203 2027.581 Z  M 2470.326 2089.608 C 2503.117 2076.729 2553.412 2069.123 2610.203 2109.52 C 2695.047 2170.401 2762.961 2106.577 2770.566 2098.972 C 2775.229 2094.271 2782.261 2094.271 2786.961 2098.972 C 2791.662 2103.672 2791.662 2110.666 2786.961 2115.367 C 2767.012 2135.852 2729.558 2158.668 2683.926 2158.668 C 2657.02 2158.668 2627.172 2150.489 2596.139 2128.247 C 2548.137 2093.736 2505.448 2099.583 2478.504 2110.705 C 2472.657 2113.036 2465.625 2110.131 2463.294 2104.284 C 2460.962 2098.398 2463.905 2091.94 2470.326 2089.608 Z " fill-rule="evenodd" fill="rgb(187,187,187)"/></svg>